<?xml version="1.0" standalone="no"?>
<!DOCTYPE svg PUBLIC "-//W3C//DTD SVG 20010904//EN"
 "http://www.w3.org/TR/2001/REC-SVG-20010904/DTD/svg10.dtd">
<svg version="1.0" xmlns="http://www.w3.org/2000/svg"
 width="460.000000pt" height="460.000000pt" viewBox="0 0 460.000000 460.000000"
 preserveAspectRatio="xMidYMid meet">
<metadata>
Created by potrace 1.14, written by Peter Selinger 2001-2017
</metadata>
<g transform="translate(0.000000,460.000000) scale(0.100000,-0.100000)"
fill="#000000" stroke="none">
<path d="M0 4300 l0 -300 34 0 c34 0 35 1 29 33 l-5 33 73 -7 c41 -4 105 -10
143 -13 38 -4 80 -9 93 -12 30 -8 30 -5 -28 135 -22 51 -39 98 -39 104 0 14
32 36 52 37 9 0 23 9 30 19 8 11 27 23 43 27 17 4 41 13 55 19 25 13 26 12 41
-28 34 -90 61 -173 65 -202 4 -28 3 -27 -15 10 -11 22 -20 48 -20 57 -1 10
-10 43 -22 75 -11 32 -23 64 -25 72 -4 11 -7 12 -16 3 -7 -7 -20 -12 -30 -12
-10 0 -18 -4 -18 -9 0 -5 -20 -19 -45 -31 -25 -12 -42 -26 -39 -31 3 -5 0 -8
-8 -7 -18 4 -14 -44 10 -95 10 -23 31 -82 47 -132 16 -49 37 -111 48 -137 l19
-46 80 54 c45 30 83 52 86 49 5 -5 -29 -34 -83 -71 l-30 -20 3 -187 2 -187
-142 0 -143 0 -21 -45 -21 -45 74 0 c47 0 73 -4 73 -11 0 -6 -6 -9 -14 -6 -8
3 -20 -1 -27 -10 -11 -12 -9 -18 10 -32 l24 -18 -24 -8 c-13 -4 -30 -6 -36 -6
-21 3 -15 -15 10 -32 16 -11 19 -18 11 -27 -8 -8 -14 -9 -18 -1 -13 20 -25 11
-22 -16 1 -16 8 -27 14 -26 7 2 12 -2 12 -8 0 -6 -8 -9 -17 -7 -10 2 -23 -3
-30 -11 -9 -13 -10 -10 -6 13 4 19 2 27 -5 22 -6 -3 -13 0 -15 6 -3 8 -6 6 -6
-5 -1 -11 -6 -15 -12 -11 -6 4 -9 19 -5 38 4 21 3 26 -3 17 -8 -12 -11 -9 -17
12 -6 27 -7 27 -25 11 -11 -9 -19 -23 -19 -31 0 -11 -35 -90 -45 -101 -6 -7
-49 21 -67 42 -17 20 -17 11 -18 -232 l0 -253 28 3 c31 3 30 -1 13 139 -6 52
-12 127 -13 168 -2 71 0 75 28 97 37 30 65 30 93 0 19 -21 25 -45 37 -148 22
-190 31 -227 59 -234 13 -3 32 -1 42 5 15 10 14 10 -9 5 -18 -4 -28 -2 -28 5
0 6 3 11 8 11 4 0 18 32 31 70 13 39 30 75 38 81 7 6 13 20 13 30 0 19 34 86
52 104 8 7 8 6 3 -4 -5 -9 -4 -12 3 -7 18 11 14 36 -5 36 -10 0 -24 4 -32 9
-11 7 -11 12 2 31 9 13 17 17 22 11 3 -6 1 -11 -4 -11 -6 0 -11 -7 -11 -15 0
-17 16 -20 25 -5 11 18 35 11 35 -10 0 -15 7 -20 24 -20 14 0 28 -5 31 -10 4
-6 11 -7 17 -4 7 5 9 1 5 -9 -3 -10 -2 -17 3 -17 6 0 10 12 10 26 0 14 4 23
10 19 6 -3 10 -20 10 -36 0 -18 -4 -28 -10 -24 -6 4 -10 -6 -11 -22 0 -15 -2
-41 -5 -58 -2 -16 -6 -54 -10 -82 -4 -37 -3 -53 5 -53 6 0 11 -15 11 -34 0
-24 -5 -36 -17 -39 -13 -3 -11 -5 7 -7 l25 -2 -25 -8 c-23 -7 -22 -8 10 -10
l35 -2 -32 -9 c-42 -12 -43 -20 -1 -12 22 4 29 3 24 -5 -4 -7 -18 -12 -30 -12
-27 0 -31 -18 -61 -240 -16 -123 -15 -135 15 -305 31 -173 30 -217 -7 -305
-33 -78 -38 -117 -35 -262 2 -69 4 -77 20 -72 19 7 107 47 165 77 21 10 40 17
43 14 5 -4 -37 -26 -191 -98 -38 -18 -88 -44 -110 -57 -22 -14 -42 -25 -45
-24 -5 1 -138 -60 -173 -79 -10 -5 -23 -7 -29 -3 -7 4 -8 3 -4 -4 4 -7 1 -12
-9 -12 -9 0 -30 -8 -48 -17 -18 -9 -35 -16 -40 -15 -4 1 -7 -27 -7 -63 0 -36
2 -65 5 -65 3 0 40 18 83 39 42 22 149 74 237 116 88 42 176 85 196 96 20 10
40 15 44 11 5 -4 5 -2 1 5 -4 7 3 14 16 19 21 6 145 65 193 91 11 6 56 28 100
48 44 21 82 41 85 45 8 10 70 30 71 22 7 -49 7 -102 1 -102 -5 0 -22 -11 -38
-25 -22 -19 -25 -25 -12 -25 31 0 30 -20 -1 -26 -31 -7 -39 -18 -21 -29 5 -3
22 5 37 19 15 15 31 26 35 26 5 0 8 5 8 11 0 6 -9 8 -22 4 -22 -6 -22 -6 -4
10 27 21 34 10 37 -55 1 -30 8 -69 16 -87 7 -18 13 -35 13 -38 0 -4 -78 -52
-137 -84 -20 -10 -22 -15 -12 -22 19 -12 7 -11 -28 1 -26 9 -27 9 -9 -5 11 -8
14 -15 7 -15 -7 0 -10 -3 -8 -7 3 -5 -5 -9 -18 -9 -12 -1 -48 -17 -78 -35
-148 -90 -304 -189 -319 -203 -10 -9 -22 -16 -26 -16 -4 0 -41 -20 -81 -45
-40 -25 -77 -45 -82 -45 -5 0 -9 -3 -9 -8 0 -4 -10 -12 -22 -17 -13 -6 -22
-16 -21 -23 2 -6 -3 -9 -10 -6 -7 2 -27 -9 -44 -25 -20 -18 -34 -25 -37 -17
-2 6 -5 3 -5 -6 -1 -11 -9 -18 -21 -18 -11 0 -28 -8 -39 -19 -10 -10 -32 -27
-49 -37 l-32 -18 0 -313 0 -313 210 0 c161 0 210 3 210 13 0 8 3 9 8 1 9 -14
258 -19 266 -6 3 6 23 5 51 -1 32 -7 52 -7 70 1 14 6 25 8 25 3 0 -5 11 -8 25
-7 14 0 25 5 25 11 0 5 5 4 12 -3 7 -7 34 -12 60 -12 41 0 48 3 48 20 0 11 5
20 11 20 6 0 9 -9 6 -20 -5 -21 3 -24 41 -14 28 8 28 21 0 30 -20 6 -20 7 -4
19 9 7 15 17 14 21 -3 10 5 14 30 14 10 0 13 -3 6 -8 -19 -13 -24 -40 -7 -46
8 -4 13 -13 9 -21 -4 -11 2 -15 21 -15 21 0 23 2 13 15 -23 28 1 36 34 10 l33
-25 1059 0 c811 0 1063 3 1072 12 9 9 12 9 12 0 0 -7 7 -12 15 -12 8 0 15 4
15 9 0 5 3 17 6 25 5 12 2 15 -9 10 -13 -5 -15 0 -10 30 3 19 2 43 -3 53 -4
10 -9 25 -10 33 -1 8 -5 28 -9 43 -5 20 -4 27 5 25 8 -2 19 23 31 67 16 60 17
80 7 141 -12 73 -11 77 27 244 21 89 29 224 18 286 l-10 50 42 17 c46 19 65
49 65 100 0 40 4 44 66 90 58 42 122 110 135 146 5 13 14 51 19 85 6 33 14 85
20 114 8 50 7 56 -14 79 -28 30 -50 127 -41 177 5 24 2 42 -10 60 -9 14 -14
30 -10 36 4 6 1 58 -6 116 -10 80 -10 107 -1 116 19 19 14 37 -18 71 -25 27
-30 41 -30 82 -1 28 -7 79 -15 115 -7 36 -10 69 -6 75 25 32 18 91 -15 125
-42 44 -75 97 -80 132 -4 21 -12 38 -19 38 -7 0 -31 18 -55 41 -26 25 -47 38
-57 35 -8 -3 -34 6 -56 22 -54 36 -117 65 -124 58 -3 -3 5 -10 18 -15 24 -10
24 -10 -3 -8 -16 1 -28 5 -28 8 0 4 -8 10 -17 12 -17 4 -17 5 0 6 20 1 23 21
3 21 -8 0 -26 -4 -39 -9 -19 -8 -39 -2 -102 30 -44 21 -85 39 -92 39 -14 0
-93 38 -93 44 0 7 44 -6 57 -17 15 -11 92 -1 114 16 8 7 21 21 27 32 10 17 11
13 12 -30 l0 -51 73 -13 c39 -7 77 -17 82 -21 6 -4 26 -11 45 -15 65 -13 151
-55 180 -88 l29 -32 1 118 c0 110 1 119 20 124 17 4 20 14 20 54 0 27 4 49 9
49 12 0 51 93 51 122 0 13 -4 28 -9 34 -10 11 -32 97 -26 103 3 2 11 -2 20 -9
9 -7 14 -15 11 -17 -2 -3 0 -19 6 -36 5 -18 11 -43 12 -57 1 -14 5 -32 8 -40
15 -41 28 -101 23 -109 -3 -5 -2 -17 2 -28 6 -14 10 -10 19 22 l12 40 3 -50 2
-50 10 48 c9 43 13 47 39 47 16 0 38 4 48 10 17 9 18 7 11 -18 -5 -15 -20 -52
-34 -82 -24 -52 -27 -77 -7 -65 5 3 7 11 4 18 -2 7 6 23 19 35 l24 23 7 -77
c8 -96 8 -327 0 -348 -3 -8 -12 -12 -20 -9 -9 3 -14 -1 -14 -12 0 -24 55 -75
82 -75 13 0 34 -3 48 -7 14 -3 22 -3 18 2 -8 8 15 35 29 35 5 0 21 6 36 13 25
11 27 17 27 74 0 38 -4 63 -12 65 -9 3 -9 15 0 50 15 58 16 121 2 113 -6 -4
-10 7 -10 24 0 17 -4 31 -10 31 -5 0 -10 -7 -10 -15 0 -8 -6 -15 -13 -15 -14
0 -37 40 -37 65 0 9 -6 12 -15 9 -10 -4 -15 0 -15 11 0 11 -5 15 -15 11 -9 -3
-15 0 -15 10 0 8 4 13 9 9 5 -3 11 7 13 22 3 32 21 38 26 9 3 -11 0 -16 -7
-12 -12 8 -14 -4 -5 -28 12 -31 24 -15 24 32 0 26 4 43 8 37 11 -16 62 -18 62
-3 0 8 -13 14 -32 15 -18 1 -44 3 -58 6 -14 2 -28 5 -32 6 -5 0 -8 5 -8 10 0
5 11 8 24 5 28 -5 39 15 30 52 -4 17 -1 26 11 30 9 4 14 13 11 20 -3 8 1 14 8
14 13 0 26 -20 26 -40 0 -5 -9 -12 -20 -15 -25 -8 -26 -25 -2 -25 11 0 24 -10
30 -22 11 -23 10 10 -3 132 -4 32 -2 39 4 25 8 -16 10 -16 10 -4 1 26 24 39
38 24 10 -11 10 -15 0 -19 -9 -3 -9 -7 2 -14 7 -5 9 -12 4 -15 -13 -8 -17
-137 -5 -137 13 0 24 29 16 41 -3 5 2 12 10 15 9 3 16 13 16 21 0 8 -5 11 -10
8 -6 -3 -10 3 -10 14 0 12 5 21 10 21 6 0 10 -6 10 -12 0 -9 3 -9 9 1 6 10 20
12 45 8 20 -3 34 -2 31 3 -3 5 4 8 15 7 17 -1 20 -8 21 -52 0 -57 8 -134 14
-152 2 -7 15 -13 29 -13 33 0 42 -16 16 -30 -11 -6 -20 -7 -20 -2 0 5 -12 7
-27 4 -25 -5 -25 -6 -8 -13 11 -4 49 -8 84 -8 l64 -1 -5 -52 c-3 -29 -3 -59
-1 -65 7 -20 23 -15 33 10 8 21 9 21 9 -5 1 -23 6 -28 25 -28 21 0 23 4 22 43
-1 23 -4 47 -8 52 -4 6 -3 17 3 25 10 17 12 37 3 27 -4 -3 -15 -2 -26 4 -18 9
-18 8 -8 -10 7 -14 8 -31 1 -53 l-9 -33 -1 42 c-1 35 -4 42 -23 45 -13 2 -24
9 -24 16 -1 6 -2 19 -3 28 0 9 -7 14 -14 11 -6 -2 -11 -10 -10 -16 2 -6 -4
-11 -12 -11 -8 0 -15 9 -15 20 0 11 5 20 11 20 7 0 17 7 23 15 10 13 14 13 39
1 19 -11 27 -12 27 -3 0 7 4 6 10 -3 8 -12 10 -12 16 3 4 10 13 16 20 13 9 -3
16 4 20 19 7 29 20 40 57 49 19 4 26 3 22 -4 -3 -5 0 -11 7 -11 7 -1 28 -3 45
-5 l32 -4 1 363 c0 235 -4 357 -10 347 -7 -10 -10 18 -10 87 0 72 4 103 13
106 6 3 7 6 1 6 -6 1 -10 19 -8 44 2 39 0 43 -19 41 -12 -1 -39 -3 -59 -3
l-38 -1 0 -76 c0 -71 -1 -76 -20 -71 -12 3 -20 0 -20 -8 0 -9 8 -11 22 -7 21
5 21 4 15 -73 -4 -43 -7 -96 -7 -117 0 -27 -4 -37 -11 -32 -7 4 -10 1 -7 -6 2
-8 -4 -22 -14 -32 -10 -10 -18 -29 -18 -43 0 -17 -8 -29 -25 -37 -13 -6 -23
-18 -23 -27 2 -14 -3 -46 -18 -118 -2 -13 -9 -23 -15 -23 -6 0 -8 4 -4 10 7
12 -14 140 -23 138 -4 -1 -17 1 -29 6 -19 6 -23 15 -23 51 0 29 -5 45 -15 49
-10 4 -15 -1 -16 -17 -1 -12 -2 -39 -3 -59 -2 -43 -13 -59 -26 -38 -7 10 -10
11 -10 3 0 -7 -4 -13 -10 -13 -5 0 -10 17 -10 38 0 30 -4 38 -20 39 -11 1 -22
-2 -25 -8 -4 -5 -15 -9 -26 -9 -11 0 -19 -6 -18 -12 4 -34 -2 -47 -22 -45 -19
1 -20 7 -18 89 3 83 -2 110 -18 95 -3 -4 -7 -46 -7 -95 l-1 -87 -45 0 -45 0
-3 -97 c-4 -94 1 -111 25 -87 6 6 18 11 27 13 9 1 16 5 16 9 0 4 0 14 0 22 0
8 -6 12 -14 9 -20 -8 -27 43 -10 75 l14 26 0 -34 c0 -42 8 -36 13 9 3 19 9 36
15 38 7 2 11 -22 10 -75 0 -43 4 -89 10 -103 12 -32 -10 -59 -33 -40 -8 7 -15
18 -15 25 0 7 -7 16 -16 19 -14 5 -15 4 -4 -9 10 -12 10 -18 1 -29 -8 -10 -10
-30 -6 -60 7 -43 6 -46 -15 -46 -21 0 -22 3 -18 55 3 31 1 50 -3 43 -5 -7 -9
-21 -9 -31 0 -11 -5 -17 -12 -14 -7 2 -12 14 -11 26 2 11 -1 21 -6 21 -4 0 -7
14 -6 30 1 17 -3 30 -8 30 -13 0 -2 139 13 154 12 12 13 27 3 25 -43 -7 -42
-7 -36 169 3 92 6 177 6 190 1 12 5 22 10 22 5 0 7 -16 5 -35 -5 -41 -3 -42
17 -11 17 25 11 56 -11 56 -14 0 -17 61 -15 259 1 50 -2 62 -11 53 -18 -18
-27 -14 -21 8 4 14 0 20 -11 20 -10 0 -15 -4 -12 -9 11 -17 -20 -29 -81 -30
-52 -1 -61 1 -57 14 4 9 0 15 -9 15 -8 0 -17 -7 -21 -15 -3 -8 -10 -15 -16
-15 -6 0 -9 3 -7 8 9 13 -79 7 -96 -7 -10 -7 -17 -9 -17 -3 0 5 -11 12 -24 14
-19 4 -23 1 -22 -18 0 -12 4 -20 8 -18 3 2 10 -8 15 -23 9 -27 10 -27 111 -28
55 -1 99 2 96 7 -3 4 1 6 8 3 27 -9 98 -13 98 -5 0 4 10 6 22 2 12 -3 17 -7
11 -9 -6 -2 -8 -14 -5 -25 5 -21 6 -21 13 -2 5 12 8 -1 8 -38 1 -32 -2 -58 -7
-58 -10 0 -32 -94 -22 -98 4 -1 5 -13 3 -26 -3 -13 0 -27 6 -30 6 -4 10 -26
10 -49 -1 -23 -3 -34 -6 -24 -2 9 -9 17 -15 17 -7 0 -6 5 1 14 8 10 9 16 1 21
-5 3 -10 0 -10 -9 0 -8 -6 -17 -13 -19 -9 -4 -9 -6 0 -6 7 -1 10 -8 6 -17 -5
-13 -7 -13 -14 -2 -7 10 -9 8 -9 -5 0 -11 9 -21 20 -24 14 -4 19 -12 17 -32
-2 -15 -7 -32 -11 -39 -4 -6 -3 -26 1 -44 11 -44 5 -120 -9 -112 -5 4 -14 0
-19 -7 -12 -19 -11 -32 1 -24 6 3 10 -3 10 -14 0 -15 -5 -19 -16 -14 -14 5
-15 -1 -9 -51 l7 -57 -26 7 c-28 7 -31 2 -16 -26 7 -13 7 -21 0 -25 -5 -3 -10
-1 -10 5 0 8 -6 8 -20 0 -16 -9 -20 -8 -20 5 0 9 -6 18 -14 21 -8 3 -12 13 -9
24 3 11 11 16 19 13 8 -3 12 -9 9 -13 -3 -5 -1 -11 4 -14 5 -4 13 4 17 16 4
13 2 24 -5 26 -6 2 -12 13 -12 25 -1 18 -2 19 -6 4 -3 -12 -10 -16 -20 -13 -9
4 -25 -5 -40 -21 -14 -16 -22 -22 -18 -14 4 7 2 17 -6 21 -10 7 -10 11 0 24 7
9 17 13 22 10 5 -3 9 -1 9 4 0 4 -18 18 -40 31 -35 20 -40 20 -40 6 0 -11 -5
-15 -15 -11 -11 4 -15 -2 -15 -22 0 -21 2 -24 10 -12 8 12 10 11 10 -7 0 -30
-15 -29 -48 3 l-27 26 23 15 c29 21 28 31 -5 35 -23 2 -28 7 -25 28 1 13 11
34 22 45 27 29 25 35 -9 35 -39 0 -42 15 -14 67 l22 43 -42 21 c-23 12 -55 32
-70 45 -16 13 -33 24 -39 24 -6 0 -17 8 -25 18 -13 16 -14 15 -10 -6 3 -12 2
-20 -2 -18 -4 3 -14 -3 -23 -13 -8 -10 -26 -17 -39 -15 -13 1 -27 3 -31 3 -5
1 -8 22 -8 47 l0 47 50 -5 c34 -4 56 -11 65 -24 13 -17 16 -17 26 -4 9 13 10
12 5 -2 -6 -19 20 -38 51 -38 17 1 17 1 1 11 -10 5 -18 21 -18 34 0 13 -4 27
-10 30 -6 3 -10 38 -10 76 0 82 -19 87 -21 6 -2 -49 -2 -50 -9 -17 -4 19 -8
31 -9 25 -1 -5 -6 -3 -11 5 -8 12 -10 9 -10 -12 0 -30 -16 -44 -44 -39 -18 3
-18 2 -3 -14 10 -9 17 -19 17 -21 0 -9 -45 8 -63 24 -16 14 -17 13 -17 -16 0
-25 -4 -32 -20 -32 -12 0 -20 7 -21 18 -2 22 -2 23 6 55 5 17 3 27 -4 27 -6 0
-11 -6 -11 -14 0 -8 -7 -16 -14 -19 -11 -4 -13 -16 -9 -41 3 -19 2 -69 -2
-110 l-7 -74 -33 5 c-34 5 -48 -5 -50 -39 -1 -13 6 -18 24 -19 14 0 20 -3 13
-6 -6 -2 -10 -8 -7 -13 3 -5 -25 -11 -62 -14 -38 -4 -87 -8 -110 -11 -25 -3
-43 0 -43 5 0 6 10 10 23 11 21 0 21 1 2 9 -14 6 -15 9 -5 10 8 0 24 7 35 16
17 13 18 16 5 24 -11 7 -12 14 -4 27 6 11 7 32 3 53 -5 21 -2 58 6 94 8 33 11
64 8 69 -4 6 -1 7 6 3 7 -5 10 -15 6 -24 -3 -9 -2 -13 2 -8 10 10 11 56 1 50
-6 -4 -28 27 -28 40 0 16 28 2 63 -31 25 -25 41 -34 44 -25 3 6 12 12 20 12
11 0 8 8 -12 28 l-27 27 28 6 c16 4 23 7 17 8 -7 0 -13 5 -13 10 0 5 10 6 23
3 21 -5 21 -5 5 12 -10 9 -23 14 -29 10 -7 -4 -9 -3 -5 4 3 6 -2 13 -13 17
-11 3 -22 12 -24 19 -9 22 -108 82 -159 96 -26 7 -46 16 -43 19 2 4 -18 13
-44 20 -27 7 -66 22 -87 33 -35 19 -51 20 -156 15 -104 -4 -126 -9 -183 -36
l-66 -30 -9 22 c-5 12 -14 51 -19 87 -6 36 -16 82 -21 103 l-11 37 -1074 0
-1075 0 0 -300z m179 124 c31 -22 94 -122 87 -140 -3 -8 -1 -14 4 -14 6 0 10
-11 10 -24 0 -13 3 -26 8 -28 4 -1 15 -18 25 -37 l17 -33 -97 7 c-54 3 -116
10 -138 13 l-40 7 -3 110 -2 110 32 23 c39 26 65 28 97 6z m301 -119 c0 -2 -9
-9 -20 -15 -16 -9 -18 -8 -14 5 5 13 34 22 34 10z m830 -5 c0 -5 -4 -10 -10
-10 -5 0 -10 5 -10 10 0 6 5 10 10 10 6 0 10 -4 10 -10z m-882 -38 c2 -7 -2
-10 -10 -7 -9 4 -19 -3 -25 -17 l-10 -22 -5 22 c-4 12 -3 20 2 17 4 -3 11 2
14 11 7 17 27 15 34 -4z m52 -1 c-14 -28 -12 -36 5 -21 10 9 15 9 15 1 0 -6
-2 -11 -4 -11 -2 0 -11 -3 -19 -6 -10 -3 -20 3 -27 15 -8 17 -8 21 2 19 7 -2
12 3 11 10 -2 6 4 12 12 12 12 0 13 -4 5 -19z m305 -117 c8 -24 15 -54 15 -64
0 -11 6 -20 13 -20 8 0 35 -14 60 -31 26 -17 54 -28 62 -25 11 4 15 -2 15 -22
1 -26 1 -27 17 -7 11 15 14 16 10 3 -5 -13 3 -17 48 -20 29 -1 51 0 48 5 -2 4
1 7 7 7 6 0 13 -6 15 -12 4 -9 30 -13 76 -14 38 -1 72 -4 74 -6 2 -2 5 -56 6
-120 2 -87 6 -118 16 -122 7 -3 13 -16 12 -28 -1 -22 -1 -22 -9 2 -8 25 -8 25
-10 -5 -1 -16 -3 -37 -4 -45 -1 -8 2 -23 7 -32 5 -11 4 -18 -3 -18 -7 0 -10
-14 -8 -32 l3 -33 -252 -3 -253 -3 0 85 c0 47 2 86 5 86 3 0 17 -7 30 -16 14
-9 25 -13 25 -9 0 3 13 -3 29 -14 16 -12 31 -21 34 -21 3 0 8 17 11 38 4 20 9
44 12 53 3 11 -8 21 -38 35 -24 10 -58 27 -75 37 -28 16 -31 22 -22 39 8 14
14 17 23 9 8 -6 33 -22 57 -35 29 -15 43 -29 41 -40 -2 -9 4 -16 12 -16 14 0
27 -53 23 -97 -1 -12 3 -22 8 -22 6 0 9 24 6 59 -2 50 0 60 13 60 9 0 16 5 16
10 0 6 -14 10 -31 10 -30 0 -31 2 -26 33 3 17 9 55 13 82 3 28 13 57 21 66 12
14 12 17 -3 23 -13 5 -14 9 -4 21 11 13 10 14 -2 10 -15 -6 -79 26 -107 53
-36 35 -52 2 -66 -132 -3 -27 -7 -52 -10 -54 -10 -10 -5 117 6 169 10 45 9 54
-5 64 -13 10 -16 30 -15 101 l0 89 19 -43 c11 -23 26 -63 35 -88z m275 106 c0
-5 -4 -10 -10 -10 -5 0 -10 5 -10 10 0 6 5 10 10 10 6 0 10 -4 10 -10z m80
-15 c24 -25 70 -128 70 -156 0 -9 7 -22 15 -29 8 -7 15 -15 15 -19 0 -8 -108
-6 -130 3 -8 3 -35 9 -60 13 -48 9 -50 13 -36 72 14 58 68 141 91 141 7 0 22
-11 35 -25z m565 -6 c32 -7 26 -8 -28 -4 -37 2 -75 9 -85 15 -18 11 33 6 113
-11z m415 2 c0 -10 -7 -22 -16 -25 -8 -3 -12 -11 -9 -17 7 -10 -32 -55 -41
-47 -11 11 10 68 27 73 10 4 18 9 18 13 -2 15 1 22 11 22 6 0 10 -9 10 -19z
m-1686 -23 c7 -5 4 -8 -6 -8 -12 0 -18 7 -17 23 0 15 2 17 6 7 3 -8 11 -18 17
-22z m1369 5 c-7 -2 -19 -2 -25 0 -7 3 -2 5 12 5 14 0 19 -2 13 -5z m-1406
-25 c-3 -8 -6 -5 -6 6 -1 11 2 17 5 13 3 -3 4 -12 1 -19z m88 -47 c-7 -24 -25
-19 -25 7 0 15 2 15 10 2 8 -13 10 -12 10 4 0 11 3 17 6 13 3 -3 3 -15 -1 -26z
m30 19 c3 -5 1 -10 -4 -10 -6 0 -11 5 -11 10 0 6 2 10 4 10 3 0 8 -4 11 -10z
m10 -29 c9 -16 -55 -42 -76 -30 -25 13 -25 14 18 15 21 1 39 7 41 13 4 13 9
14 17 2z m45 -48 c0 -9 -6 -13 -15 -9 -8 3 -14 0 -12 -7 1 -7 -6 -11 -18 -9
-11 2 -17 1 -13 -3 8 -8 -26 -37 -54 -48 -9 -3 -19 0 -22 9 -3 9 15 27 56 54
61 39 78 42 78 13z m52 -35 c10 -29 18 -57 18 -62 0 -19 -27 28 -34 59 -4 17
-10 39 -13 50 -11 40 11 4 29 -47z m3898 21 c0 -11 -7 -19 -15 -19 -10 0 -15
10 -15 31 0 27 2 30 15 19 8 -7 15 -21 15 -31z m-4060 17 c0 -3 -4 -8 -10 -11
-5 -3 -10 -1 -10 4 0 6 5 11 10 11 6 0 10 -2 10 -4z m1373 -63 c-7 -2 -19 -2
-25 0 -7 3 -2 5 12 5 14 0 19 -2 13 -5z m2683 -26 c9 -5 11 -23 7 -60 -3 -28
-5 -62 -4 -74 0 -14 -5 -23 -14 -23 -8 0 -15 -5 -15 -11 0 -5 4 -8 9 -4 5 3
13 0 17 -6 6 -10 -11 -28 -28 -29 -10 0 -10 186 -1 220 4 16 8 20 11 10 3 -8
11 -18 18 -23z m-3673 0 c4 3 7 -7 7 -24 0 -27 -3 -30 -22 -25 -16 4 -19 2
-13 -8 5 -9 4 -11 -3 -6 -13 8 -16 58 -5 69 3 4 11 2 18 -3 7 -5 15 -7 18 -3z
m534 -9 c-3 -8 -6 -5 -6 6 -1 11 2 17 5 13 3 -3 4 -12 1 -19z m-117 -8 c0 -11
-2 -20 -4 -20 -2 0 -6 9 -9 20 -3 11 -1 20 4 20 5 0 9 -9 9 -20z m1892 8 c3
-7 5 -58 6 -112 2 -54 5 -103 9 -109 7 -12 -16 -27 -34 -20 -7 3 -13 11 -13
19 0 8 -5 14 -11 14 -5 0 -7 5 -4 10 4 6 8 51 10 100 2 49 6 94 10 100 9 14
22 13 27 -2z m-2673 -25 c-12 -15 -12 -16 4 -10 15 6 16 4 7 -13 -14 -27 -27
-25 -24 3 1 12 3 25 3 30 1 4 6 7 12 7 8 0 7 -6 -2 -17z m61 7 c0 -5 -5 -10
-11 -10 -5 0 -7 5 -4 10 3 6 8 10 11 10 2 0 4 -4 4 -10z m340 -48 c-10 -4 -10
-6 0 -12 8 -5 5 -9 -8 -12 -15 -4 -19 -2 -15 8 3 8 -1 14 -11 14 -9 0 -16 4
-16 9 0 6 9 8 19 6 11 -2 22 3 25 11 3 8 0 14 -7 14 -8 0 -6 4 3 10 12 7 16 4
18 -17 2 -15 -2 -29 -8 -31z m429 16 c-7 -26 -6 -35 6 -44 20 -15 20 -54 0
-54 -10 0 -15 10 -15 33 0 24 -3 28 -10 17 -12 -19 -13 -8 -1 22 5 13 12 31
15 41 10 31 15 18 5 -15z m68 -15 c-3 -10 -5 -4 -5 12 0 17 2 24 5 18 2 -7 2
-21 0 -30z m1935 -2 c-11 -6 -10 -11 3 -25 9 -9 12 -16 7 -16 -15 0 -34 28
-27 40 3 5 12 10 18 10 8 0 8 -3 -1 -9z m-2499 -43 c-3 -17 -2 -19 5 -9 5 7
15 10 21 7 14 -9 14 -36 0 -36 -5 0 -7 -4 -4 -10 10 -17 22 -11 28 12 4 12 9
19 12 16 4 -3 2 -16 -5 -27 -6 -12 -8 -26 -5 -31 4 -6 -5 -5 -19 2 -14 6 -26
15 -26 20 0 4 -6 8 -13 8 -9 0 -13 12 -13 35 1 19 6 35 13 35 6 0 9 -9 6 -22z
m3004 0 c-3 -8 -6 -5 -6 6 -1 11 2 17 5 13 3 -3 4 -12 1 -19z m-401 -2 c10 -8
17 -17 14 -19 -3 -3 -16 3 -30 13 -29 22 -14 27 16 6z m-1756 -26 c0 -5 -4
-10 -10 -10 -5 0 -10 5 -10 10 0 6 5 10 10 10 6 0 10 -4 10 -10z m184 -90 c3
-52 6 -217 6 -367 1 -188 5 -273 12 -275 13 -5 -59 -64 -116 -97 -24 -14 -48
-20 -62 -17 -13 4 -25 2 -28 -3 -4 -5 -40 -19 -81 -32 -41 -12 -72 -26 -69
-31 3 -5 0 -8 -7 -7 -19 3 -70 -22 -64 -32 3 -4 -5 -5 -17 -1 -16 4 -19 2 -13
-9 5 -8 5 -11 0 -7 -9 8 -61 -16 -90 -43 -21 -18 -75 -43 -75 -33 0 3 6 12 14
20 10 9 14 33 14 64 -1 30 -5 45 -10 38 -4 -7 -8 -21 -8 -30 0 -21 -16 -24
-23 -5 -3 6 -6 -1 -6 -16 -1 -24 -3 -26 -20 -17 -12 6 -24 28 -29 53 -6 23
-10 34 -11 24 -1 -14 -6 -17 -21 -12 -14 5 -20 2 -20 -9 0 -9 9 -16 20 -16 11
0 20 -4 20 -10 0 -5 -12 -10 -26 -10 -21 0 -25 -4 -20 -17 4 -10 4 -14 -1 -10
-8 8 -62 -145 -63 -178 -1 -50 -15 -49 -95 4 -80 53 -92 55 -167 34 -10 -2
-18 0 -18 6 0 5 24 15 54 21 56 11 60 17 71 95 1 6 5 18 10 28 9 22 6 25 -33
33 -26 5 -31 4 -27 -9 5 -11 -3 -16 -33 -19 l-40 -3 -6 65 c-10 105 -7 300 4
300 6 0 10 -8 11 -17 0 -16 1 -16 8 1 5 14 10 16 15 7 4 -6 16 -9 26 -6 10 3
21 1 25 -5 4 -6 -4 -10 -19 -10 -14 0 -26 -4 -26 -10 0 -12 97 -12 125 0 18 8
17 9 -8 9 -35 1 -26 21 10 21 20 0 24 4 19 17 -4 10 -4 14 0 11 4 -4 15 -3 25
3 13 7 19 6 19 -1 0 -7 6 -8 19 0 11 5 31 10 45 10 14 0 26 5 26 11 0 8 -16
10 -50 6 -31 -4 -61 -1 -80 7 l-31 13 41 12 c24 7 38 16 34 23 -4 7 -9 6 -15
-3 -7 -11 -11 -11 -21 -1 -10 10 -10 18 4 42 16 29 16 30 -2 30 -14 0 -20 -7
-20 -21 0 -18 -2 -19 -15 -9 -8 7 -15 22 -16 34 0 11 -3 15 -6 9 -2 -7 -9 -13
-15 -13 -6 0 -6 6 2 15 15 18 44 20 37 2 -4 -10 3 -12 27 -8 30 4 30 5 6 12
-14 4 46 7 132 8 l157 1 -1 -32 c-2 -61 2 -80 15 -75 13 4 18 105 5 113 -5 3
-8 10 -8 15 0 6 5 7 10 4 6 -3 10 0 11 7 0 7 2 28 3 45 2 18 0 30 -5 27 -5 -3
-9 -13 -10 -22 0 -14 -2 -13 -8 3 -5 12 -4 23 3 27 6 4 12 21 12 38 3 63 4 66
13 50 5 -8 14 -75 20 -149 6 -74 12 -136 14 -137 2 -2 28 6 59 18 55 20 57 22
61 62 4 35 4 34 3 -9 -1 -53 -5 -57 -82 -85 l-32 -12 4 -206 c3 -114 4 -210 4
-214 0 -4 34 11 76 33 42 21 83 39 90 39 12 0 14 49 14 270 l0 270 43 0 c31 0
45 5 55 20 7 11 21 20 31 20 11 0 26 6 33 13 7 8 18 12 24 10 6 -2 14 9 17 24
6 34 2 40 -18 23 -12 -10 -15 -10 -15 4 0 9 8 16 19 16 14 0 19 6 19 23 -1 12
-1 46 0 75 2 48 4 52 27 52 16 0 25 6 25 15 0 8 6 15 14 15 8 0 18 9 21 21 4
11 8 19 10 17 1 -2 5 -46 9 -98z m-459 80 c3 -5 1 -10 -4 -10 -6 0 -11 5 -11
10 0 6 2 10 4 10 3 0 8 -4 11 -10z m185 -6 c0 -8 -5 -12 -10 -9 -6 4 -8 11 -5
16 9 14 15 11 15 -7z m-240 -64 c0 -33 4 -60 9 -60 4 0 23 5 40 11 24 9 35 9
44 0 8 -8 7 -11 -6 -11 -9 0 -17 -5 -17 -11 0 -6 -6 -9 -14 -6 -8 3 -17 3 -20
-1 -4 -3 -15 -7 -26 -9 -16 -2 -20 3 -21 25 -1 16 -3 20 -6 10 -6 -24 -15 -23
-31 3 -8 12 -9 18 -3 14 7 -4 11 4 11 22 0 43 11 73 26 73 10 0 14 -16 14 -60z
m1951 18 l1 -43 12 43 c13 50 26 46 26 -9 0 -27 -5 -38 -17 -41 -33 -9 -43 3
-43 48 0 56 20 58 21 2z m89 31 c0 -5 -4 -7 -10 -4 -6 4 -10 -9 -11 -32 -1
-21 -5 -51 -9 -68 -6 -23 -8 -12 -9 43 -1 66 1 72 19 72 11 0 20 -5 20 -11z
m-287 -29 c-5 -19 -23 -29 -23 -12 0 7 20 32 26 32 1 0 0 -9 -3 -20z m-1456
-12 c-3 -8 -6 -5 -6 6 -1 11 2 17 5 13 3 -3 4 -12 1 -19z m-87 -4 c0 -8 -4
-12 -10 -9 -5 3 -10 10 -10 16 0 5 5 9 10 9 6 0 10 -7 10 -16z m-756 -45 c15
-29 14 -30 -7 -27 -16 2 -23 11 -25 31 -4 36 13 34 32 -4z m893 9 c-3 -8 -6
-5 -6 6 -1 11 2 17 5 13 3 -3 4 -12 1 -19z m-120 -20 c-3 -8 -6 -5 -6 6 -1 11
2 17 5 13 3 -3 4 -12 1 -19z m54 9 c-1 -12 -15 -9 -19 4 -3 6 1 10 8 8 6 -3
11 -8 11 -12z m951 -8 c-24 -12 -48 -31 -53 -43 -8 -17 -8 -15 -4 9 8 37 30
55 69 55 31 0 30 0 -12 -21z m538 0 c0 -11 -4 -17 -10 -14 -5 3 -10 13 -10 21
0 8 5 14 10 14 6 0 10 -9 10 -21z m-2266 5 c9 -3 16 -15 16 -25 0 -11 7 -19
16 -19 8 0 12 -4 9 -10 -8 -14 -70 13 -71 31 -1 28 5 32 30 23z m593 -71 c-3
-10 -5 -2 -5 17 0 19 2 27 5 18 2 -10 2 -26 0 -35z m241 35 c-6 -18 -28 -21
-28 -4 0 9 7 16 16 16 9 0 14 -5 12 -12z m-78 -24 c0 -8 -4 -12 -10 -9 -5 3
-10 13 -10 21 0 8 5 12 10 9 6 -3 10 -13 10 -21z m118 3 c2 -10 -3 -17 -12
-17 -10 0 -16 9 -16 21 0 24 23 21 28 -4z m-311 -11 c0 -12 -6 -24 -12 -28 -6
-5 -2 -8 10 -9 13 0 8 -4 -13 -10 -38 -11 -62 1 -62 32 0 18 10 23 38 20 6 -1
12 2 12 7 0 5 6 9 14 9 8 0 14 -9 13 -21z m1601 -4 c24 -15 40 -46 48 -89 4
-23 -11 -29 -54 -24 -7 1 -40 -7 -73 -19 -63 -21 -100 -19 -132 8 -10 9 -16
21 -13 28 3 7 1 14 -3 16 -13 5 -24 48 -12 48 6 0 11 -4 11 -10 0 -5 5 -10 10
-10 6 0 10 8 10 18 0 10 7 27 15 38 13 19 21 21 92 16 45 -3 88 -11 101 -20z
m-444 -30 c-6 -20 -24 -32 -24 -14 1 23 14 52 21 45 5 -5 6 -18 3 -31z m536 7
c0 -34 -23 -37 -28 -3 -3 16 -1 16 7 4 9 -12 11 -11 11 8 0 12 2 22 5 22 3 0
5 -14 5 -31z m1018 4 c2 -7 -1 -13 -6 -13 -17 0 -42 12 -42 20 0 12 43 6 48
-7z m-2541 -15 c-3 -8 -6 -5 -6 6 -1 11 2 17 5 13 3 -3 4 -12 1 -19z m73 6 c0
-9 -5 -14 -12 -12 -18 6 -21 28 -4 28 9 0 16 -7 16 -16z m1760 2 c0 -3 -4 -8
-10 -11 -5 -3 -10 -1 -10 4 0 6 5 11 10 11 6 0 10 -2 10 -4z m-1952 -131 c0
-26 -1 -25 -9 10 -4 22 -8 56 -7 75 0 33 1 32 9 -10 4 -25 7 -58 7 -75z m222
105 c0 -5 -4 -10 -10 -10 -5 0 -10 5 -10 10 0 6 5 10 10 10 6 0 10 -4 10 -10z
m347 -12 c-3 -8 -6 -5 -6 6 -1 11 2 17 5 13 3 -3 4 -12 1 -19z m651 10 c7 -7
22 -13 34 -13 12 0 23 -6 25 -13 3 -8 -1 -10 -13 -5 -14 5 -16 2 -12 -15 4
-12 4 -22 2 -22 -15 0 -74 31 -74 39 0 5 -3 16 -6 25 -7 20 26 22 44 4z m1384
-45 c-2 -7 -11 -13 -20 -13 -12 0 -13 3 -4 12 7 7 12 23 13 38 l1 25 7 -25 c4
-14 6 -31 3 -37z m150 37 c-26 -25 -52 -26 -52 -2 0 14 2 15 10 2 8 -12 10
-12 16 3 3 9 16 17 27 17 l21 0 -22 -20z m-2112 -50 c0 -8 11 -37 25 -64 14
-27 25 -53 25 -58 0 -5 10 -22 21 -37 21 -29 19 -51 -4 -51 -7 0 -29 -16 -49
-35 -20 -19 -39 -35 -42 -35 -3 0 -6 78 -6 173 1 154 2 169 15 147 8 -14 14
-32 15 -40z m1060 -23 c0 -14 -4 -16 -19 -8 -14 8 -22 7 -32 -5 -12 -14 -14
-14 -20 3 -6 14 -8 11 -8 -11 -1 -17 7 -39 18 -50 21 -24 36 -76 22 -76 -6 0
-15 8 -21 18 -11 16 -11 16 -6 0 3 -11 0 -18 -9 -18 -7 0 -16 -13 -20 -30 -4
-16 -13 -30 -21 -30 -19 0 -18 16 1 24 8 3 15 10 15 15 0 6 -7 8 -15 5 -10 -4
-15 0 -15 11 0 11 5 15 15 11 12 -4 14 8 11 74 -2 44 0 80 5 80 4 0 12 12 17
28 6 15 11 20 11 12 1 -10 7 -7 18 9 l16 24 18 -34 c10 -19 18 -42 19 -52z
m-1745 33 c2 -16 -1 -31 -6 -31 -5 -1 -13 -2 -18 -3 -5 0 -13 -4 -17 -8 -14
-15 -20 -8 -21 25 -1 25 3 34 16 34 9 0 19 -5 23 -11 4 -6 8 0 8 13 0 33 12
18 15 -19z m155 20 c0 -11 -7 -20 -15 -20 -8 0 -15 9 -15 20 0 11 7 20 15 20
8 0 15 -9 15 -20z m50 -14 c-14 -14 -24 0 -16 21 6 15 8 15 16 3 6 -9 5 -19 0
-24z m2907 28 c-3 -3 -12 -4 -19 -1 -8 3 -5 6 6 6 11 1 17 -2 13 -5z m-1180
-26 c-3 -8 -6 -5 -6 6 -1 11 2 17 5 13 3 -3 4 -12 1 -19z m468 -8 c-26 -11
-45 -12 -45 -2 0 4 15 8 33 9 26 2 28 0 12 -7z m-1189 -28 c12 -6 24 -8 28 -5
3 3 6 1 6 -5 0 -6 -3 -13 -8 -16 -12 -7 -82 18 -82 30 0 13 28 12 56 -4z m889
8 c3 -5 1 -10 -4 -10 -6 0 -11 5 -11 10 0 6 2 10 4 10 3 0 8 -4 11 -10z m111
-22 c-18 -26 -22 -17 -5 14 6 11 13 17 16 15 3 -3 -2 -16 -11 -29z m914 23 c0
-5 -9 -7 -20 -4 -11 3 -20 7 -20 9 0 2 9 4 20 4 11 0 20 -4 20 -9z m-2513 -38
c-3 -10 -5 -4 -5 12 0 17 2 24 5 18 2 -7 2 -21 0 -30z m2138 18 c3 -5 1 -12
-5 -16 -5 -3 -10 1 -10 9 0 18 6 21 15 7z m-356 -22 c-16 -10 -23 -4 -14 10 3
6 11 8 17 5 6 -4 5 -9 -3 -15z m251 12 c0 -5 -7 -11 -15 -15 -9 -3 -15 0 -15
9 0 8 7 15 15 15 8 0 15 -4 15 -9z m-2620 -11 c0 -12 -81 -50 -92 -43 -20 11
-4 32 30 41 50 13 62 14 62 2z m1242 -24 c21 -31 -18 -29 -82 6 l-35 19 55 -7
c30 -4 58 -12 62 -18z m526 7 c-10 -2 -26 -2 -35 0 -10 3 -2 5 17 5 19 0 27
-2 18 -5z m125 0 c-7 -2 -21 -2 -30 0 -10 3 -4 5 12 5 17 0 24 -2 18 -5z m764
-25 c-3 -7 -5 -2 -5 12 0 14 2 19 5 13 2 -7 2 -19 0 -25z m308 12 c10 -11 14
-20 9 -20 -5 0 -15 9 -22 20 -7 11 -11 20 -9 20 2 0 12 -9 22 -20z m-1995 -26
c0 -12 7 -14 33 -9 28 5 29 4 12 -6 -19 -12 -19 -12 0 -20 11 -4 -7 -5 -40 -2
-68 7 -79 11 -47 20 21 5 21 6 5 19 -17 12 -16 13 10 14 18 0 27 -5 27 -16z
m1073 -186 c-3 -112 -7 -205 -9 -207 -2 -2 -34 0 -71 5 l-68 9 68 3 67 3 0
189 0 189 -67 4 -68 3 77 2 77 2 -6 -202z m-2063 181 c0 -5 5 -7 10 -4 6 3 10
1 10 -5 0 -6 -14 -13 -30 -17 -17 -3 -33 -10 -36 -14 -9 -16 -21 -9 -19 11 1
21 15 41 15 22 0 -7 10 -12 23 -11 12 0 16 3 10 6 -18 7 -16 23 2 23 8 0 15
-5 15 -11z m2328 -35 c2 -26 0 -34 -7 -25 -5 7 -14 10 -20 7 -6 -4 -11 -1 -11
6 0 9 -3 9 -8 2 -14 -21 -40 -23 -45 -3 -3 10 -1 17 4 13 5 -3 9 2 9 10 0 19
29 36 55 32 16 -2 21 -12 23 -42z m-2861 28 c-9 -2 -14 -8 -11 -14 4 -6 2 -8
-4 -4 -6 3 -13 2 -17 -4 -4 -6 6 -10 25 -10 37 0 45 -17 34 -65 -12 -49 -29
-44 -25 7 2 35 0 40 -14 34 -10 -3 -24 -1 -31 5 -10 8 -14 8 -14 0 0 -6 5 -11
10 -11 6 0 10 -6 10 -14 0 -8 6 -17 13 -19 7 -4 3 -8 -10 -12 -13 -4 -20 -11
-17 -16 3 -5 -2 -9 -10 -9 -8 0 -17 -4 -20 -9 -3 -4 5 -6 18 -4 13 3 26 1 30
-5 6 -11 -70 -26 -85 -17 -5 4 -9 44 -9 91 l0 84 73 -2 c39 -1 64 -4 54 -6z
m3150 -14 c-3 -8 -6 -5 -6 6 -1 11 2 17 5 13 3 -3 4 -12 1 -19z m-3501 -1 c3
-2 -8 -4 -25 -3 -16 1 -33 5 -37 9 -4 4 7 5 25 3 17 -2 34 -6 37 -9z m-71 -7
c3 -5 1 -10 -4 -10 -6 0 -11 5 -11 10 0 6 2 10 4 10 3 0 8 -4 11 -10z m3355
-59 c0 -33 -4 -62 -9 -65 -10 -7 -21 17 -21 45 0 11 -7 19 -16 19 -10 0 -14 7
-12 23 2 12 8 22 15 22 6 0 15 3 19 8 18 17 24 3 24 -52z m-3293 27 c-3 -8 -6
-5 -6 6 -1 11 2 17 5 13 3 -3 4 -12 1 -19z m-151 -3 c-11 -8 -22 -12 -25 -9
-6 6 19 24 34 24 6 -1 1 -7 -9 -15z m3044 -60 c0 -79 -8 -92 -55 -91 -18 1
-20 9 -23 84 l-3 82 41 0 40 0 0 -75z m462 23 c-9 -9 -12 -7 -12 12 0 19 3 21
12 12 9 -9 9 -15 0 -24z m-2922 -4 c0 -9 -5 -14 -12 -12 -18 6 -21 28 -4 28 9
0 16 -7 16 -16z m2155 -12 c-3 -3 -11 0 -18 7 -9 10 -8 11 6 5 10 -3 15 -9 12
-12z m-2582 -47 c-24 -19 -30 -18 -36 4 -3 11 1 22 9 25 8 3 11 0 7 -10 -10
-26 7 -14 19 14 11 27 12 27 16 4 2 -15 -3 -29 -15 -37z m3354 23 c-3 -8 -6
-5 -6 6 -1 11 2 17 5 13 3 -3 4 -12 1 -19z m-801 -5 c15 -20 19 -57 5 -49 -5
3 -7 -13 -6 -37 1 -23 0 -28 -2 -12 -2 17 -9 34 -14 40 -10 10 -13 75 -3 75 4
0 13 -8 20 -17z m-1678 -40 c1 -31 -1 -34 -9 -20 -8 14 -5 57 5 57 2 0 3 -17
4 -37z m32 16 c0 -5 -4 -9 -10 -9 -5 0 -10 7 -10 16 0 8 5 12 10 9 6 -3 10
-10 10 -16z m2454 -31 c-3 -4 -13 -8 -22 -7 -11 0 -12 3 -4 6 6 2 12 12 12 21
0 14 2 15 9 2 6 -8 7 -18 5 -22z m-3344 -23 l-24 -26 -8 22 c-6 15 -4 25 4 30
7 5 15 4 16 -1 2 -6 8 -10 14 -10 6 0 7 8 3 18 -5 13 -4 14 6 5 10 -10 8 -18
-11 -38z m147 13 c-3 -8 -6 -5 -6 6 -1 11 2 17 5 13 3 -3 4 -12 1 -19z m-102
-29 c-4 -5 -12 -9 -19 -9 -7 0 -21 -9 -31 -20 -10 -11 -22 -17 -26 -14 -14 8
-11 24 4 24 8 0 24 9 37 20 22 19 46 18 35 -1z m2851 1 c8 0 14 -4 14 -10 0
-11 -33 -14 -43 -4 -3 3 -3 13 1 22 4 10 7 12 10 4 2 -7 10 -12 18 -12z
m-1411 0 c-3 -5 -12 -10 -18 -10 -7 0 -6 4 3 10 19 12 23 12 15 0z m1355 -16
c0 -11 -5 -14 -16 -10 -9 3 -20 6 -25 6 -5 0 -9 5 -9 10 0 6 11 10 25 10 16 0
25 -6 25 -16z m-3097 -8 c9 5 9 4 1 -5 -7 -8 -10 -29 -7 -52 5 -32 3 -39 -11
-39 -9 0 -16 4 -16 9 0 6 -8 8 -17 6 -25 -4 -29 57 -6 76 15 12 16 12 10 -5
-5 -12 -3 -23 5 -29 9 -6 8 -7 -4 -3 -20 6 -22 -1 -9 -23 7 -11 10 -11 16 0 6
9 10 8 16 -7 5 -11 6 4 4 36 -3 30 -2 49 1 42 3 -6 11 -9 17 -6z m3214 -18
c-3 -8 -6 -5 -6 6 -1 11 2 17 5 13 3 -3 4 -12 1 -19z m-3153 -3 c3 -8 1 -15
-4 -15 -6 0 -10 4 -10 9 0 5 -8 12 -17 14 -14 4 -13 5 3 6 12 0 24 -6 28 -14z
m222 -12 c-10 -10 -19 5 -10 18 6 11 8 11 12 0 2 -7 1 -15 -2 -18z m1401 1
c-3 -3 -12 -4 -19 -1 -8 3 -5 6 6 6 11 1 17 -2 13 -5z m-1427 -8 c0 -3 -11
-17 -24 -31 -17 -18 -26 -22 -32 -14 -4 7 -3 9 3 6 6 -4 14 0 17 9 5 12 2 15
-11 10 -15 -5 -15 -4 1 9 19 14 46 20 46 11z m-200 -26 c0 -5 -2 -10 -4 -10
-3 0 -8 5 -11 10 -3 6 -1 10 4 10 6 0 11 -4 11 -10z m24 -58 c-6 -9 -18 -18
-27 -20 -15 -3 -15 -1 0 28 11 23 18 29 26 21 8 -8 9 -16 1 -29z m3516 -11 c0
-6 5 -11 10 -11 6 0 10 -7 10 -15 0 -21 -9 -19 -32 7 -16 19 -21 20 -29 8 -9
-13 -10 -13 -5 0 3 8 9 23 12 32 5 15 8 15 20 3 8 -7 14 -18 14 -24z m-3633 1
c-18 -4 -24 -52 -7 -52 6 0 10 -10 10 -22 0 -19 -2 -20 -10 -8 -9 13 -10 13
-11 0 -1 -8 -5 7 -10 35 -9 57 3 84 29 63 13 -12 13 -13 -1 -16z m3608 -42 c3
-5 -1 -10 -10 -10 -9 0 -13 5 -10 10 3 6 8 10 10 10 2 0 7 -4 10 -10z m126
-42 c13 -24 3 -39 -19 -31 -35 13 -44 53 -11 50 11 -1 25 -9 30 -19z m-3444
-30 c-3 -8 -6 -5 -6 6 -1 11 2 17 5 13 3 -3 4 -12 1 -19z m-288 5 c0 -5 -4
-17 -9 -28 -8 -17 -8 -16 -7 8 1 15 5 27 9 27 4 0 8 -3 7 -7z m22 -39 c-8 -29
-8 -29 -15 -5 -6 16 -4 26 5 32 18 11 20 8 10 -27z m269 -26 c0 -11 -7 -18
-17 -17 -10 0 -13 3 -7 5 6 3 9 17 7 32 -4 21 -2 24 6 12 6 -8 11 -23 11 -32z
m-297 6 c3 -3 3 -13 0 -21 -5 -12 -7 -12 -14 -1 -15 23 -4 40 14 22z m636 -46
c-12 -53 -19 -63 -31 -47 -7 11 -11 11 -15 2 -2 -7 -10 -13 -17 -13 -16 0 -15
49 2 59 7 4 10 15 6 25 -6 15 -3 17 14 12 11 -4 23 -2 27 4 14 23 22 -2 14
-42z m3091 31 c0 8 2 12 5 10 2 -3 0 -18 -4 -35 -5 -16 -10 -21 -10 -12 -1 9
-4 25 -7 35 -5 15 -4 15 5 3 9 -12 11 -13 11 -1z m-3193 -56 c-3 -10 -5 -2 -5
17 0 19 2 27 5 18 2 -10 2 -26 0 -35z m345 25 c-7 -7 -12 -8 -12 -2 0 14 12
26 19 19 2 -3 -1 -11 -7 -17z m100 -40 c-7 -7 -12 -8 -12 -2 0 14 12 26 19 19
2 -3 -1 -11 -7 -17z m2298 -8 c0 -5 -2 -10 -4 -10 -3 0 -8 5 -11 10 -3 6 -1
10 4 10 6 0 11 -4 11 -10z m-2443 -79 c-3 -14 -1 -18 9 -14 8 3 14 1 14 -5 0
-5 -9 -12 -20 -15 -11 -3 -20 -2 -20 1 0 15 13 52 17 52 3 0 3 -9 0 -19z m103
-31 c0 -16 -7 -20 -30 -20 -39 0 -41 27 -2 33 15 2 28 5 30 6 1 0 2 -8 2 -19z
m-100 -397 c0 -56 -6 -54 -14 5 -3 24 -1 42 4 42 6 0 10 -21 10 -47z m-363
-285 c-2 -13 -4 -3 -4 22 0 25 2 35 4 23 2 -13 2 -33 0 -45z m293 -258 c-14
-11 -31 -20 -37 -20 -7 0 -13 -4 -13 -10 0 -5 -8 -10 -17 -10 -10 0 -40 -12
-68 -25 -57 -28 -89 -34 -65 -11 8 7 33 20 55 29 22 8 60 27 85 41 25 14 54
26 65 26 18 0 18 -2 -5 -20z m27 -496 c-3 -3 -12 -4 -19 -1 -8 3 -5 6 6 6 11
1 17 -2 13 -5z m118 -24 c3 -5 1 -10 -4 -10 -6 0 -11 5 -11 10 0 6 2 10 4 10
3 0 8 -4 11 -10z m22 -26 c-3 -3 -12 -4 -19 -1 -8 3 -5 6 6 6 11 1 17 -2 13
-5z m2186 -166 c19 -15 35 -133 22 -165 -8 -20 -12 -12 -45 110 -19 70 -14 82
23 55z m-2130 -155 c-18 -2 -33 -8 -33 -14 0 -5 -5 -9 -11 -9 -8 0 -8 5 1 15
7 8 26 14 44 13 l31 -1 -32 -4z m-353 -23 c0 -5 -5 -10 -11 -10 -5 0 -7 5 -4
10 3 6 8 10 11 10 2 0 4 -4 4 -10z m397 4 c-3 -3 -12 -4 -19 -1 -8 3 -5 6 6 6
11 1 17 -2 13 -5z m98 -13 c3 -5 1 -12 -5 -16 -5 -3 -10 1 -10 9 0 18 6 21 15
7z m-155 -11 c-19 -13 -30 -13 -30 0 0 6 10 10 23 10 18 0 19 -2 7 -10z m-73
-32 c-3 -8 -6 -5 -6 6 -1 11 2 17 5 13 3 -3 4 -12 1 -19z m-207 2 c0 -5 -2
-10 -4 -10 -3 0 -8 5 -11 10 -3 6 -1 10 4 10 6 0 11 -4 11 -10z m430 -5 c0 -8
-4 -15 -10 -15 -5 0 -7 7 -4 15 4 8 8 15 10 15 2 0 4 -7 4 -15z m40 5 c0 -5
-4 -10 -10 -10 -5 0 -10 5 -10 10 0 6 5 10 10 10 6 0 10 -4 10 -10z m-90 -53
c0 -5 -4 -5 -10 -2 -5 3 -10 14 -10 23 0 15 2 15 10 2 5 -8 10 -19 10 -23z
m53 16 c-7 -2 -19 -2 -25 0 -7 3 -2 5 12 5 14 0 19 -2 13 -5z m-1106 -9 c-3
-3 -12 -4 -19 -1 -8 3 -5 6 6 6 11 1 17 -2 13 -5z m1143 -4 c0 -5 -5 -10 -11
-10 -5 0 -7 5 -4 10 3 6 8 10 11 10 2 0 4 -4 4 -10z m-102 -20 c15 0 15 -2 2
-10 -15 -9 -30 4 -29 25 0 6 3 4 6 -2 2 -7 12 -13 21 -13z m-468 0 c0 -5 -2
-10 -4 -10 -3 0 -8 5 -11 10 -3 6 -1 10 4 10 6 0 11 -4 11 -10z m-660 -30 c0
-5 -4 -10 -10 -10 -5 0 -10 5 -10 10 0 6 5 10 10 10 6 0 10 -4 10 -10z m1030
-20 c0 -5 -5 -10 -11 -10 -5 0 -7 5 -4 10 3 6 8 10 11 10 2 0 4 -4 4 -10z m35
-10 c-3 -5 -11 -10 -16 -10 -6 0 -7 5 -4 10 3 6 11 10 16 10 6 0 7 -4 4 -10z
m152 -12 c-3 -8 -6 -5 -6 6 -1 11 2 17 5 13 3 -3 4 -12 1 -19z m-137 -23 c0
-5 -4 -10 -10 -9 -5 1 -22 2 -36 3 -14 0 -23 4 -21 9 7 11 67 9 67 -3z m92 -7
c-7 -7 -12 -8 -12 -2 0 14 12 26 19 19 2 -3 -1 -11 -7 -17z m48 -8 c0 -5 -5
-10 -11 -10 -5 0 -7 5 -4 10 3 6 8 10 11 10 2 0 4 -4 4 -10z m-240 -20 c8 -5
11 -10 5 -10 -5 0 -17 5 -25 10 -8 5 -10 10 -5 10 6 0 17 -5 25 -10z m94 1 c3
-5 -1 -11 -9 -14 -9 -4 -12 -1 -8 9 6 16 10 17 17 5z m-214 -23 c0 -13 -23 -5
-28 10 -2 7 2 10 12 6 9 -3 16 -11 16 -16z m250 13 c0 -6 -4 -13 -10 -16 -5
-3 -10 1 -10 9 0 9 5 16 10 16 6 0 10 -4 10 -9z m45 -11 c-3 -5 -11 -10 -16
-10 -6 0 -7 5 -4 10 3 6 11 10 16 10 6 0 7 -4 4 -10z m-808 -26 c-3 -3 -12 -4
-19 -1 -8 3 -5 6 6 6 11 1 17 -2 13 -5z m336 -1 c-7 -2 -19 -2 -25 0 -7 3 -2
5 12 5 14 0 19 -2 13 -5z m377 3 c0 -3 -4 -8 -10 -11 -5 -3 -10 -1 -10 4 0 6
5 11 10 11 6 0 10 -2 10 -4z m150 -16 c0 -5 -2 -10 -4 -10 -3 0 -8 5 -11 10
-3 6 -1 10 4 10 6 0 11 -4 11 -10z m-453 -16 c-3 -3 -12 -4 -19 -1 -8 3 -5 6
6 6 11 1 17 -2 13 -5z m348 -14 c-10 -11 -25 -20 -34 -19 -14 0 -14 1 -1 6 8
3 19 12 23 19 4 8 13 14 19 14 6 0 3 -9 -7 -20z m60 10 c-3 -5 -12 -7 -20 -3
-21 7 -19 13 6 13 11 0 18 -4 14 -10z m-175 -31 c0 -14 -17 -10 -23 5 -4 10
-1 13 9 9 7 -3 14 -9 14 -14z m-310 1 c0 -5 -4 -10 -10 -10 -5 0 -10 5 -10 10
0 6 5 10 10 10 6 0 10 -4 10 -10z m280 -22 c0 -5 -10 -8 -22 -7 -13 0 -17 3
-10 6 6 2 12 12 12 21 0 15 2 15 10 2 5 -8 10 -18 10 -22z m170 22 c0 -5 -2
-10 -4 -10 -3 0 -8 5 -11 10 -3 6 -1 10 4 10 6 0 11 -4 11 -10z m-90 -10 c0
-5 -9 -10 -20 -10 -11 0 -20 5 -20 10 0 6 9 10 20 10 11 0 20 -4 20 -10z m160
-6 c0 -8 -5 -12 -10 -9 -6 4 -8 11 -5 16 9 14 15 11 15 -7z m-445 -4 c3 -5 -3
-10 -14 -10 -12 0 -21 5 -21 10 0 6 6 10 14 10 8 0 18 -4 21 -10z m112 -15 c0
-8 -4 -15 -9 -15 -10 0 -11 14 -1 23 9 10 10 9 10 -8z m221 8 c-10 -2 -18 -9
-18 -14 0 -5 -4 -9 -10 -9 -5 0 -10 7 -10 15 0 10 9 15 28 14 16 -1 20 -3 10
-6z m-83 -13 c3 -5 1 -10 -4 -10 -6 0 -11 5 -11 10 0 6 2 10 4 10 3 0 8 -4 11
-10z m150 0 c3 -5 1 -10 -4 -10 -6 0 -11 5 -11 10 0 6 2 10 4 10 3 0 8 -4 11
-10z m-40 -10 c-4 -6 -11 -8 -16 -5 -5 4 -9 1 -9 -4 0 -6 -4 -11 -10 -11 -5 0
-7 7 -4 15 4 8 15 15 26 15 10 0 16 -5 13 -10z m67 -16 c-5 -9 -7 -35 -5 -56
4 -25 2 -38 -6 -38 -6 0 -11 -16 -11 -37 0 -21 -6 -50 -14 -65 -15 -28 -16
-52 -3 -64 12 -12 8 -24 -7 -24 -8 0 -22 10 -30 22 -19 27 -21 42 -3 32 8 -5
8 -2 -2 9 -15 19 -48 22 -71 7 -12 -8 -9 -10 14 -10 21 0 27 -4 22 -15 -3 -9
0 -15 10 -15 8 0 13 -4 10 -9 -4 -5 -2 -11 2 -13 5 -1 12 -23 15 -48 4 -30 3
-38 -3 -25 -5 11 -9 30 -9 41 -1 13 -9 24 -21 27 -11 3 -24 16 -29 29 -7 16
-10 18 -10 6 -1 -9 -5 -19 -10 -22 -5 -4 -7 4 -3 16 5 21 4 22 -12 9 -9 -8
-15 -20 -12 -28 7 -17 -4 -17 -30 2 -12 8 -25 11 -29 7 -4 -4 -5 0 -3 8 3 8
11 14 18 12 7 -1 21 0 31 3 15 5 18 13 14 37 -5 24 -3 29 9 25 10 -4 13 -1 9
9 -6 17 -8 17 -34 2 -17 -11 -22 -10 -34 6 -7 10 -18 15 -24 11 -17 -10 -13
-28 4 -21 9 3 18 -1 21 -9 4 -8 14 -15 23 -15 14 0 14 -2 1 -10 -20 -13 -33
-13 -25 0 3 6 -3 10 -15 10 -12 0 -18 -4 -15 -10 9 -14 -17 -12 -35 3 -8 7
-23 27 -32 45 -14 27 -15 32 -3 32 8 0 15 -4 15 -10 0 -5 7 -7 16 -3 13 5 13
8 2 15 -9 7 -5 8 12 4 14 -3 38 -6 53 -6 18 0 26 -4 21 -11 -10 -16 36 0 55
19 31 30 54 91 29 76 -7 -4 -8 -3 -4 4 13 22 35 12 43 -18 6 -23 11 -27 23
-20 13 8 12 11 -5 24 -16 12 -17 16 -6 30 7 9 19 16 25 16 6 0 3 -5 -6 -11
-10 -5 -18 -14 -18 -19 0 -16 35 1 60 29 27 30 38 33 22 5z m-832 12 c0 -3 -4
-8 -10 -11 -5 -3 -10 -1 -10 4 0 6 5 11 10 11 6 0 10 -2 10 -4z m233 -3 c-7
-2 -19 -2 -25 0 -7 3 -2 5 12 5 14 0 19 -2 13 -5z m127 -6 c0 -16 -32 -19 -47
-5 -13 14 -11 15 16 14 17 -1 31 -5 31 -9z m190 3 c0 -5 -4 -10 -10 -10 -5 0
-10 5 -10 10 0 6 5 10 10 10 6 0 10 -4 10 -10z m30 0 c0 -5 -4 -10 -10 -10 -5
0 -10 5 -10 10 0 6 5 10 10 10 6 0 10 -4 10 -10z m-447 -7 c-7 -2 -19 -2 -25
0 -7 3 -2 5 12 5 14 0 19 -2 13 -5z m472 -3 c3 -5 1 -10 -4 -10 -6 0 -11 5
-11 10 0 6 2 10 4 10 3 0 8 -4 11 -10z m-402 -7 c-7 -2 -19 -2 -25 0 -7 3 -2
5 12 5 14 0 19 -2 13 -5z m308 -29 c-5 -16 -10 -21 -10 -12 -1 18 10 51 15 45
2 -1 -1 -16 -5 -33z m165 11 c4 -14 4 -29 0 -32 -3 -4 -6 3 -6 15 0 28 -8 28
-32 0 -20 -23 -20 -23 3 -28 37 -9 34 -28 -3 -25 -18 1 -39 -2 -45 -8 -19 -14
-16 8 3 28 13 12 14 19 5 28 -8 8 -11 8 -11 -1 0 -17 -39 -54 -50 -47 -17 11
-11 23 15 29 16 4 25 13 25 26 0 18 3 19 20 8 17 -11 22 -9 37 10 23 28 31 28
39 -3z m-473 -2 c-7 -2 -19 -2 -25 0 -7 3 -2 5 12 5 14 0 19 -2 13 -5z m60 0
c-7 -2 -19 -2 -25 0 -7 3 -2 5 12 5 14 0 19 -2 13 -5z m69 -4 c-13 -5 -30 -5
-38 -1 -9 5 -1 8 23 9 33 1 35 0 15 -8z m228 -4 c0 -8 -4 -15 -8 -15 -5 0 -9
7 -9 15 0 8 4 15 9 15 4 0 8 -7 8 -15z m-540 -5 c0 -5 -4 -10 -10 -10 -5 0
-10 5 -10 10 0 6 5 10 10 10 6 0 10 -4 10 -10z m255 -10 c-3 -5 -16 -10 -28
-9 -20 1 -20 2 3 9 14 4 26 8 28 9 2 1 0 -3 -3 -9z m-328 -6 c-3 -3 -12 -4
-19 -1 -8 3 -5 6 6 6 11 1 17 -2 13 -5z m533 -4 c0 -5 -4 -10 -9 -10 -6 0 -13
5 -16 10 -3 6 1 10 9 10 9 0 16 -4 16 -10z m-290 -10 c0 -5 -4 -10 -10 -10 -5
0 -10 5 -10 10 0 6 5 10 10 10 6 0 10 -4 10 -10z m250 -21 c7 -13 7 -19 0 -19
-5 0 -10 7 -10 15 0 8 -4 15 -10 15 -5 0 -10 5 -10 11 0 14 18 2 30 -22z m76
-8 c-4 -6 -16 -11 -26 -11 -19 0 -19 1 -3 20 17 20 42 12 29 -9z m-959 13 c-3
-3 -12 -4 -19 -1 -8 3 -5 6 6 6 11 1 17 -2 13 -5z m443 -14 c0 -5 -4 -10 -10
-10 -5 0 -10 5 -10 10 0 6 5 10 10 10 6 0 10 -4 10 -10z m194 4 c21 -8 20 -30
0 -38 -22 -9 -32 3 -14 14 10 7 11 10 3 10 -7 0 -13 5 -13 10 0 12 3 12 24 4z
m91 -4 c8 -13 -5 -13 -25 0 -13 8 -13 10 2 10 9 0 20 -4 23 -10z m50 -10 c3
-5 1 -10 -4 -10 -6 0 -11 5 -11 10 0 6 2 10 4 10 3 0 8 -4 11 -10z m-182 -41
c-8 -31 -20 -22 -15 12 3 19 7 26 12 19 4 -7 5 -21 3 -31z m108 23 c-7 -2 -18
1 -23 6 -8 8 -4 9 13 5 13 -4 18 -8 10 -11z m164 8 c3 -5 1 -10 -5 -10 -6 0 1
-12 15 -27 24 -27 27 -32 29 -63 1 -9 11 -15 28 -15 15 1 25 -1 23 -4 -3 -2 0
-10 6 -18 9 -10 8 -13 -3 -13 -17 0 -98 39 -82 40 7 0 15 7 18 16 5 12 2 15
-9 10 -9 -3 -13 -2 -10 4 3 6 1 10 -5 10 -7 0 -10 6 -7 14 4 9 -3 16 -19 20
-21 6 -22 9 -12 26 14 22 24 25 33 10z m-130 -10 c3 -5 1 -10 -4 -10 -6 0 -11
5 -11 10 0 6 2 10 4 10 3 0 8 -4 11 -10z m181 -16 c13 -14 24 -34 24 -45 0
-29 -17 -23 -25 9 -3 15 -14 35 -22 45 -9 9 -13 17 -8 17 4 0 18 -11 31 -26z
m-508 9 c-10 -2 -18 -9 -18 -15 0 -6 -3 -9 -6 -5 -10 10 6 27 24 26 15 -1 15
-2 0 -6z m92 -13 c0 -5 -4 -10 -10 -10 -5 0 -10 5 -10 10 0 6 5 10 10 10 6 0
10 -4 10 -10z m270 -40 c0 -5 -7 -7 -15 -4 -8 4 -12 10 -9 15 6 11 24 2 24
-11z m-275 0 c3 -5 -3 -10 -15 -10 -12 0 -18 5 -15 10 3 6 10 10 15 10 5 0 12
-4 15 -10z m105 -10 c0 -5 -7 -10 -16 -10 -8 0 -12 5 -9 10 3 6 10 10 16 10 5
0 9 -4 9 -10z m144 -5 c19 -15 19 -15 -1 -15 -12 0 -23 -5 -25 -12 -3 -7 -9
-8 -18 -3 -10 6 -8 11 11 18 l24 10 -25 7 c-20 7 -21 8 -5 9 11 0 29 -6 39
-14z m98 -7 c-9 -9 -15 -9 -24 0 -9 9 -7 12 12 12 19 0 21 -3 12 -12z m-217
-8 c3 -5 1 -10 -4 -10 -6 0 -11 5 -11 10 0 6 2 10 4 10 3 0 8 -4 11 -10z m-35
-14 c0 -2 -7 -6 -15 -10 -8 -3 -15 -1 -15 4 0 6 7 10 15 10 8 0 15 -2 15 -4z
m-293 -12 c-3 -3 -12 -4 -19 -1 -8 3 -5 6 6 6 11 1 17 -2 13 -5z m533 -16 c16
-20 20 -21 36 -8 16 14 17 13 6 -5 -8 -15 -7 -24 4 -36 13 -14 11 -16 -16 -17
-16 0 -33 4 -36 10 -4 6 1 8 15 3 20 -6 21 -5 9 14 -11 18 -14 19 -30 5 -16
-15 -16 -18 4 -45 17 -23 19 -32 10 -41 -9 -9 -12 -7 -12 8 0 12 -9 29 -20 39
l-20 18 22 24 c27 29 18 39 -22 23 -27 -11 -33 -11 -48 5 -16 17 -15 17 21 12
20 -3 37 -2 37 4 0 16 21 10 40 -13z m30 12 c0 -5 -4 -10 -10 -10 -5 0 -10 5
-10 10 0 6 5 10 10 10 6 0 10 -4 10 -10z m-243 -6 c-3 -3 -12 -4 -19 -1 -8 3
-5 6 6 6 11 1 17 -2 13 -5z m73 -4 c0 -5 -12 -10 -27 -9 -25 0 -26 1 -8 9 27
12 35 12 35 0z m215 -30 c3 -5 -3 -10 -15 -10 -12 0 -18 5 -15 10 3 6 10 10
15 10 5 0 12 -4 15 -10z m171 -19 c10 -12 7 -18 -14 -28 -28 -15 -47 -7 -19 8
16 10 16 12 -5 29 l-23 19 25 -6 c14 -4 30 -13 36 -22z m34 19 c0 -5 -7 -10
-16 -10 -8 0 -12 5 -9 10 3 6 10 10 16 10 5 0 9 -4 9 -10z m-473 -17 c3 -7 -3
-9 -16 -6 -12 3 -21 10 -21 15 0 13 32 6 37 -9z m133 7 c0 -5 -5 -10 -11 -10
-5 0 -7 5 -4 10 3 6 8 10 11 10 2 0 4 -4 4 -10z m190 0 c-8 -5 -19 -10 -25
-10 -5 0 -3 5 5 10 8 5 20 10 25 10 6 0 3 -5 -5 -10z m207 -22 c-3 -7 -5 -2
-5 12 0 14 2 19 5 13 2 -7 2 -19 0 -25z m50 10 c-3 -8 -6 -5 -6 6 -1 11 2 17
5 13 3 -3 4 -12 1 -19z m-487 -20 c0 -5 -7 -8 -17 -8 -9 0 -13 3 -10 7 4 3 1
13 -6 21 -11 13 -9 14 11 1 12 -8 22 -17 22 -21z m410 -7 c0 -29 -15 -33 -16
-5 -1 13 2 24 7 24 5 0 9 -9 9 -19z m-920 5 c0 -2 3 -12 6 -21 6 -15 4 -15
-15 -4 -25 16 -27 29 -6 29 8 0 15 -2 15 -4z m455 -5 c3 -5 1 -12 -5 -16 -5
-3 -10 1 -10 9 0 18 6 21 15 7z m-80 -10 c-18 -7 -55 -4 -55 5 0 2 17 4 38 3
28 0 32 -2 17 -8z m296 -24 c-1 -12 -15 -9 -19 4 -3 6 1 10 8 8 6 -3 11 -8 11
-12z"/>
<path d="M250 4240 c0 -5 5 -10 10 -10 6 0 10 5 10 10 0 6 -4 10 -10 10 -5 0
-10 -4 -10 -10z"/>
<path d="M1003 3675 c0 -44 2 -61 4 -37 2 23 2 59 0 80 -2 20 -4 1 -4 -43z"/>
<path d="M1057 3721 c-4 -18 -6 -54 -6 -80 l1 -46 8 38 c10 51 16 54 24 13 8
-42 26 -57 26 -22 0 14 5 28 10 31 6 4 10 -7 10 -24 0 -17 5 -31 10 -31 6 0 8
10 6 23 -3 12 -8 43 -11 70 -7 54 -25 64 -25 13 0 -35 -20 -63 -20 -29 -1 10
-7 32 -14 48 l-12 30 -7 -34z"/>
<path d="M1172 3673 l3 -68 33 -3 c18 -2 32 1 32 7 0 6 -11 11 -25 11 -18 0
-25 5 -25 20 0 13 7 20 20 20 11 0 20 5 20 10 0 6 -9 10 -20 10 -13 0 -20 7
-20 18 0 12 7 18 20 18 34 -2 27 19 -8 22 l-33 3 3 -68z"/>
<path d="M470 4040 c0 -5 4 -10 9 -10 6 0 13 5 16 10 3 6 -1 10 -9 10 -9 0
-16 -4 -16 -10z"/>
<path d="M1270 3295 c7 -9 15 -13 17 -11 7 7 -7 26 -19 26 -6 0 -6 -6 2 -15z"/>
<path d="M968 3293 c6 -2 18 -2 25 0 6 3 1 5 -13 5 -14 0 -19 -2 -12 -5z"/>
<path d="M1256 3192 c-2 -4 -1 -14 5 -22 7 -12 9 -10 9 8 0 23 -5 28 -14 14z"/>
<path d="M833 3147 c6 -12 12 -49 12 -82 l0 -60 37 0 c44 0 53 -8 39 -32 -10
-17 -10 -17 -11 0 0 9 -4 17 -10 17 -13 0 -13 -6 1 -32 8 -15 8 -22 -1 -28 -7
-4 -9 -13 -5 -20 16 -25 53 68 58 148 1 12 5 22 10 22 4 0 7 6 7 13 0 20 22
38 35 27 6 -5 26 -5 50 0 22 5 57 10 78 10 20 0 37 4 37 9 0 5 -47 9 -105 8
-58 -1 -105 -5 -105 -8 0 -3 -22 -5 -50 -5 -32 0 -50 4 -50 12 0 6 -9 14 -20
17 -18 4 -18 3 -7 -16z m54 -69 c-3 -7 -5 -2 -5 12 0 14 2 19 5 13 2 -7 2 -19
0 -25z"/>
<path d="M1030 3100 c0 -6 7 -10 15 -10 8 0 15 2 15 4 0 2 -7 6 -15 10 -8 3
-15 1 -15 -4z"/>
<path d="M1793 3083 c9 -2 23 -2 30 0 6 3 -1 5 -18 5 -16 0 -22 -2 -12 -5z"/>
<path d="M981 3040 c-7 -22 -9 -46 -5 -53 4 -7 3 -8 -2 -4 -5 5 -14 -11 -21
-35 -64 -224 -64 -205 2 -238 17 -8 36 -21 43 -27 7 -7 17 -13 22 -13 10 0 40
92 40 122 0 11 5 29 12 41 11 21 15 33 36 120 10 37 10 37 -48 82 -32 25 -60
45 -63 45 -2 0 -9 -18 -16 -40z m64 -38 c-5 -13 -3 -13 11 -2 13 11 17 11 24
1 10 -18 -3 -64 -20 -69 -9 -3 -11 1 -7 12 4 9 3 15 -1 12 -17 -10 -52 25 -52
53 0 15 3 31 7 34 11 11 44 -25 38 -41z m-50 -72 c-4 -6 1 -7 11 -3 13 5 15 2
9 -18 -7 -23 -7 -24 9 -4 15 19 16 19 6 -8 -12 -35 -12 -37 0 -37 6 0 10 9 10
20 0 11 4 20 10 20 6 0 6 -9 0 -26 -6 -14 -7 -30 -4 -36 8 -12 -21 4 -54 30
-18 14 -22 24 -17 45 4 15 11 27 17 27 5 0 6 -4 3 -10z m-22 -70 c24 -1 80
-58 73 -75 -5 -15 -9 -14 -33 5 -16 11 -38 29 -51 38 -17 13 -21 22 -16 37 5
11 9 14 12 7 2 -7 9 -12 15 -12z m-20 -47 c8 -16 -8 -52 -20 -45 -7 4 -10 17
-6 30 5 22 18 29 26 15z m44 -50 c-4 -3 3 -18 15 -31 l23 -25 -32 17 c-35 17
-41 31 -20 39 18 8 21 8 14 0z"/>
<path d="M844 2975 c20 -15 20 -15 0 -15 -18 -1 -18 -1 -1 -11 26 -15 47 -4
40 20 -4 15 -13 21 -32 21 -25 -1 -25 -1 -7 -15z"/>
<path d="M1141 2964 c0 -11 3 -14 6 -6 3 7 2 16 -1 19 -3 4 -6 -2 -5 -13z"/>
<path d="M865 2920 c3 -5 8 -10 11 -10 2 0 4 5 4 10 0 6 -5 10 -11 10 -5 0 -7
-4 -4 -10z"/>
<path d="M781 2904 c0 -11 3 -14 6 -6 3 7 2 16 -1 19 -3 4 -6 -2 -5 -13z"/>
<path d="M800 2900 c0 -6 7 -10 15 -10 8 0 15 2 15 4 0 2 -7 6 -15 10 -8 3
-15 1 -15 -4z"/>
<path d="M1360 3639 c0 -5 5 -7 10 -4 6 3 10 8 10 11 0 2 -4 4 -10 4 -5 0 -10
-5 -10 -11z"/>
<path d="M815 3410 c-3 -6 1 -7 9 -4 18 7 21 14 7 14 -6 0 -13 -4 -16 -10z"/>
<path d="M1323 363 c-18 -6 -16 -23 1 -23 17 0 30 16 19 23 -5 2 -14 2 -20 0z"/>
<path d="M1250 300 c13 -8 11 -11 -7 -16 -26 -7 -31 -24 -8 -24 8 0 19 8 24
19 11 19 5 31 -13 31 -6 0 -4 -5 4 -10z"/>
<path d="M1306 265 c4 -8 8 -15 10 -15 2 0 4 7 4 15 0 8 -4 15 -10 15 -5 0 -7
-7 -4 -15z"/>
<path d="M1260 219 c0 -5 6 -9 14 -9 8 0 22 -3 32 -7 11 -4 15 -2 12 7 -5 15
-58 23 -58 9z"/>
<path d="M2755 4590 c3 -5 12 -10 19 -10 13 0 262 -124 282 -141 15 -13 64 -7
64 7 0 7 -8 10 -19 7 -16 -4 -98 33 -274 124 -44 23 -82 30 -72 13z"/>
<path d="M3090 4560 c0 -31 4 -40 18 -40 13 0 18 10 20 40 2 34 0 40 -18 40
-17 0 -20 -7 -20 -40z"/>
<path d="M3167 4593 c-11 -10 -8 -53 3 -53 6 0 10 14 10 30 0 31 -2 35 -13 23z"/>
<path d="M3372 4588 c3 -7 15 -15 29 -18 17 -5 23 -13 22 -28 -2 -20 2 -21 58
-19 56 1 60 3 54 22 -4 11 -7 27 -8 36 -1 13 -16 17 -80 18 -60 2 -78 -1 -75
-11z"/>
<path d="M3543 4588 c3 -9 33 -13 103 -13 54 0 104 -3 111 -8 6 -4 13 -2 16 5
3 10 7 10 20 -1 14 -11 20 -11 32 -1 12 10 15 10 15 0 0 -6 -9 -14 -20 -17
-11 -3 -20 -9 -20 -13 0 -4 -12 -10 -27 -13 -16 -2 -57 -12 -93 -22 -43 -12
-103 -18 -176 -19 -97 -1 -115 2 -133 18 -12 11 -21 14 -21 8 0 -7 4 -12 8
-12 5 0 15 -12 22 -27 7 -16 15 -23 17 -15 6 16 193 17 193 1 0 -6 7 -3 16 5
8 9 25 16 37 16 12 0 42 6 67 14 25 7 51 11 59 8 8 -3 11 0 7 7 -4 6 -3 11 2
11 6 0 13 -11 16 -25 4 -14 11 -25 17 -25 6 0 7 5 3 11 -3 6 0 15 7 20 11 7 9
9 -6 9 -17 0 -17 2 -5 10 27 17 30 11 30 -52 0 -39 4 -58 9 -50 5 9 33 15 77
17 l69 2 6 34 c4 19 7 26 8 16 0 -10 6 -15 12 -12 6 4 9 -4 7 -22 -2 -18 1
-27 10 -25 7 1 12 -8 12 -23 0 -26 -15 -34 -23 -12 -3 6 -4 -32 -4 -85 1 -61
5 -94 10 -89 5 5 11 20 12 33 1 13 3 26 4 31 0 4 10 7 20 7 11 0 23 5 27 12 5
8 0 9 -14 6 -24 -7 -31 0 -37 34 l-4 21 20 -22 c28 -30 40 -16 42 50 1 30 6
60 11 68 6 9 5 12 -2 7 -6 -3 -13 2 -15 11 -4 17 -5 17 -6 1 -1 -19 -21 -26
-21 -8 0 6 -7 10 -16 10 -10 0 -12 4 -7 13 4 6 8 33 8 60 0 36 -3 47 -15 45
-11 -2 -14 -15 -11 -51 2 -40 0 -46 -14 -41 -9 4 -15 14 -14 23 1 9 1 28 0 44
l-1 27 -231 0 c-180 0 -230 -3 -226 -12z m405 -15 c-15 -2 -42 -2 -60 0 -18 2
-6 4 27 4 33 0 48 -2 33 -4z m42 -37 c0 -17 -2 -18 -10 -6 -9 13 -10 13 -10 0
0 -13 -2 -13 -9 0 -12 17 -7 27 14 27 9 0 15 -9 15 -21z m-90 5 c0 -12 -20
-25 -27 -18 -7 7 6 27 18 27 5 0 9 -4 9 -9z m-43 -53 c-3 -8 -6 -5 -6 6 -1 11
2 17 5 13 3 -3 4 -12 1 -19z m110 16 c-3 -3 -12 -4 -19 -1 -8 3 -5 6 6 6 11 1
17 -2 13 -5z m-54 -34 c-3 -12 -8 -19 -11 -16 -5 6 5 36 12 36 2 0 2 -9 -1
-20z m77 3 c0 -7 -3 -13 -7 -13 -5 0 -18 -3 -30 -6 -19 -5 -23 -2 -23 15 0 18
5 21 30 19 17 -1 30 -8 30 -15z m-100 -8 c0 -8 -4 -15 -10 -15 -5 0 -10 7 -10
15 0 8 5 15 10 15 6 0 10 -7 10 -15z"/>
<path d="M3330 4573 c5 -2 10 -13 10 -24 0 -10 4 -19 10 -19 13 0 -4 43 -19
46 -6 1 -7 0 -1 -3z"/>
<path d="M3700 4560 c0 -5 5 -10 10 -10 6 0 10 5 10 10 0 6 -4 10 -10 10 -5 0
-10 -4 -10 -10z"/>
<path d="M3560 4550 c0 -5 5 -10 11 -10 5 0 7 5 4 10 -3 6 -8 10 -11 10 -2 0
-4 -4 -4 -10z"/>
<path d="M3220 4514 c0 -9 8 -24 18 -33 9 -9 24 -29 32 -45 13 -26 60 -48 60
-28 -1 18 -19 34 -34 29 -14 -6 -15 -3 -6 13 6 11 7 20 3 20 -5 0 -17 14 -26
30 -19 32 -47 40 -47 14z"/>
<path d="M3096 4503 c-11 -11 -6 -23 8 -23 8 0 17 4 20 9 7 10 -19 23 -28 14z"/>
<path d="M3155 4490 c4 -6 11 -8 16 -5 14 9 11 15 -7 15 -8 0 -12 -5 -9 -10z"/>
<path d="M3650 4460 c0 -5 5 -10 11 -10 5 0 7 5 4 10 -3 6 -8 10 -11 10 -2 0
-4 -4 -4 -10z"/>
<path d="M3698 4463 c7 -3 16 -2 19 1 4 3 -2 6 -13 5 -11 0 -14 -3 -6 -6z"/>
<path d="M3791 4438 c-1 -16 4 -28 10 -28 5 0 8 4 4 9 -3 6 3 15 12 21 16 10
16 11 1 6 -9 -3 -19 0 -22 7 -2 7 -5 0 -5 -15z"/>
<path d="M3440 4440 c0 -5 5 -10 11 -10 5 0 7 5 4 10 -3 6 -8 10 -11 10 -2 0
-4 -4 -4 -10z"/>
<path d="M3545 4440 c-3 -5 1 -10 10 -10 9 0 13 5 10 10 -3 6 -8 10 -10 10 -2
0 -7 -4 -10 -10z"/>
<path d="M3740 4440 c0 -5 5 -10 11 -10 5 0 7 5 4 10 -3 6 -8 10 -11 10 -2 0
-4 -4 -4 -10z"/>
<path d="M3488 4433 c6 -2 18 -2 25 0 6 3 1 5 -13 5 -14 0 -19 -2 -12 -5z"/>
<path d="M3113 4375 c0 -27 2 -38 4 -22 2 15 2 37 0 50 -2 12 -4 0 -4 -28z"/>
<path d="M3905 4412 c-43 -7 -51 -12 -35 -22 10 -7 11 -10 3 -10 -8 0 -13 -13
-13 -30 0 -34 21 -37 32 -5 6 19 6 19 7 -2 1 -31 36 -20 36 13 0 19 -5 24 -25
25 -25 1 -25 1 2 8 31 7 25 29 -7 23z"/>
<path d="M3091 4394 c0 -11 3 -14 6 -6 3 7 2 16 -1 19 -3 4 -6 -2 -5 -13z"/>
<path d="M3425 4400 c3 -5 8 -10 11 -10 2 0 4 5 4 10 0 6 -5 10 -11 10 -5 0
-7 -4 -4 -10z"/>
<path d="M3698 4393 c7 -3 16 -2 19 1 4 3 -2 6 -13 5 -11 0 -14 -3 -6 -6z"/>
<path d="M3746 4391 c-15 -6 -16 -10 -7 -15 8 -5 20 -2 29 8 17 17 9 19 -22 7z"/>
<path d="M3240 4384 c0 -26 42 -64 68 -63 20 1 22 3 8 6 -10 3 -32 19 -47 36
-16 17 -29 27 -29 21z"/>
<path d="M3980 4380 c0 -5 7 -7 15 -4 8 4 15 8 15 10 0 2 -7 4 -15 4 -8 0 -15
-4 -15 -10z"/>
<path d="M3981 4324 c0 -11 3 -14 6 -6 3 7 2 16 -1 19 -3 4 -6 -2 -5 -13z"/>
<path d="M4574 4305 c4 -35 16 -44 16 -12 0 14 -4 28 -9 32 -5 3 -8 -6 -7 -20z"/>
<path d="M3888 4292 c-25 -3 -28 -7 -28 -43 0 -42 20 -54 39 -21 10 16 10 16
11 0 0 -10 5 -15 13 -12 15 5 16 60 1 72 -5 4 -21 6 -36 4z"/>
<path d="M3113 4200 c0 -47 2 -66 4 -42 2 23 2 61 0 85 -2 23 -4 4 -4 -43z"/>
<path d="M3960 4264 c0 -8 5 -12 10 -9 6 3 10 10 10 16 0 5 -4 9 -10 9 -5 0
-10 -7 -10 -16z"/>
<path d="M3480 4215 l0 -55 160 0 160 0 0 55 0 55 -160 0 -160 0 0 -55z"/>
<path d="M4506 4255 c-3 -8 -1 -15 4 -15 6 0 10 7 10 15 0 8 -2 15 -4 15 -2 0
-6 -7 -10 -15z"/>
<path d="M4582 4240 c0 -14 2 -19 5 -12 2 6 2 18 0 25 -3 6 -5 1 -5 -13z"/>
<path d="M3425 4240 c4 -6 -8 -10 -28 -10 -26 0 -36 -5 -40 -19 -3 -14 -1 -18
9 -14 8 3 11 9 8 15 -4 6 11 9 37 7 44 -3 49 0 49 24 0 8 -4 7 -10 -3 -6 -10
-10 -11 -10 -2 0 6 -5 12 -11 12 -5 0 -7 -4 -4 -10z"/>
<path d="M4137 4233 c-4 -3 -7 -11 -7 -17 0 -6 5 -5 12 2 6 6 9 14 7 17 -3 3
-9 2 -12 -2z"/>
<path d="M4020 4182 c0 -15 6 -18 30 -14 25 4 27 6 15 18 -19 20 -45 17 -45
-4z"/>
<path d="M3890 4170 c0 -5 -7 -7 -15 -4 -12 5 -15 -3 -15 -36 0 -41 1 -41 33
-38 29 3 32 6 33 38 0 32 -10 49 -28 50 -5 0 -8 -4 -8 -10z"/>
<path d="M3218 4164 c-5 -4 -8 -19 -8 -33 1 -23 2 -24 11 -8 11 19 9 53 -3 41z"/>
<path d="M4022 4050 c0 -14 2 -19 5 -12 2 6 2 18 0 25 -3 6 -5 1 -5 -13z"/>
<path d="M4592 4040 c0 -14 2 -19 5 -12 2 6 2 18 0 25 -3 6 -5 1 -5 -13z"/>
<path d="M3908 4043 c6 -2 12 -11 12 -19 0 -9 -5 -12 -11 -8 -7 4 -10 1 -7 -6
9 -28 28 -22 28 9 0 23 -4 31 -17 30 -11 0 -13 -3 -5 -6z"/>
<path d="M4592 3980 c0 -19 2 -27 5 -17 2 9 2 25 0 35 -3 9 -5 1 -5 -18z"/>
<path d="M295 3970 c-3 -5 -1 -10 4 -10 6 0 11 5 11 10 0 6 -2 10 -4 10 -3 0
-8 -4 -11 -10z"/>
<path d="M2905 3930 c-3 -5 -2 -10 4 -10 5 0 13 5 16 10 3 6 2 10 -4 10 -5 0
-13 -4 -16 -10z"/>
<path d="M3948 3934 c-3 -3 -4 -14 -1 -25 5 -18 6 -18 18 -2 17 23 2 47 -17
27z"/>
<path d="M4095 3910 c-4 -6 -10 -8 -15 -5 -4 3 -7 -6 -6 -19 1 -19 4 -22 14
-13 20 16 35 47 23 47 -5 0 -13 -5 -16 -10z"/>
<path d="M4014 3891 c2 -14 9 -27 17 -29 11 -3 12 -2 1 6 -8 5 -13 12 -12 16
1 4 -1 12 -4 19 -2 6 -3 1 -2 -12z"/>
<path d="M3735 3871 c-3 -5 -1 -12 4 -15 5 -3 11 1 15 9 6 16 -9 21 -19 6z"/>
<path d="M3850 3860 c0 -5 5 -10 11 -10 5 0 7 5 4 10 -3 6 -8 10 -11 10 -2 0
-4 -4 -4 -10z"/>
<path d="M4441 3854 c0 -11 3 -14 6 -6 3 7 2 16 -1 19 -3 4 -6 -2 -5 -13z"/>
<path d="M3700 3851 c0 -5 7 -12 16 -15 14 -5 15 -4 4 9 -14 17 -20 19 -20 6z"/>
<path d="M4055 3839 c-4 -6 -5 -12 -2 -15 2 -3 7 2 10 11 7 17 1 20 -8 4z"/>
<path d="M4075 3810 c-3 -5 -1 -10 4 -10 6 0 11 5 11 10 0 6 -2 10 -4 10 -3 0
-8 -4 -11 -10z"/>
<path d="M3846 3775 c-3 -11 -6 -36 -6 -57 l0 -36 45 0 c32 0 45 4 45 14 0 8
10 14 25 14 23 0 25 4 25 40 0 38 -1 40 -32 41 -18 1 -47 2 -65 3 -24 1 -33
-4 -37 -19z m74 -19 c0 -3 -4 -8 -10 -11 -5 -3 -10 -1 -10 4 0 6 5 11 10 11 6
0 10 -2 10 -4z"/>
<path d="M3530 3755 c0 -8 5 -15 10 -15 6 0 10 7 10 15 0 8 -4 15 -10 15 -5 0
-10 -7 -10 -15z"/>
<path d="M4282 3740 c0 -14 2 -19 5 -12 2 6 2 18 0 25 -3 6 -5 1 -5 -13z"/>
<path d="M35 3689 c-28 -57 -45 -180 -30 -216 5 -10 7 -21 7 -25 -1 -5 2 -7 7
-5 20 5 100 -68 101 -90 0 -13 -5 -23 -10 -23 -6 0 -22 10 -35 23 -13 12 -35
33 -49 46 l-26 23 1 -48 c0 -40 2 -45 9 -26 5 12 12 22 14 22 3 0 3 -7 -1 -15
-3 -9 -2 -15 3 -14 21 4 35 -2 29 -11 -4 -6 -11 -8 -16 -5 -5 4 -4 -5 3 -19 6
-14 17 -26 25 -26 7 0 13 -7 13 -16 0 -11 -10 -7 -38 16 -34 28 -37 29 -40 11
-2 -12 13 -36 40 -63 23 -23 39 -37 35 -30 -5 7 -3 12 3 12 6 0 8 5 5 10 -3 6
-2 10 3 10 5 0 17 21 26 48 10 26 22 56 28 67 6 11 22 43 35 70 13 28 29 59
35 69 6 11 14 33 19 50 8 26 5 34 -19 57 -15 15 -43 43 -62 63 -19 20 -47 48
-62 63 l-26 26 -27 -54z m95 -65 c0 -25 -20 -65 -30 -59 -6 4 -4 12 5 21 8 9
15 20 15 25 0 6 -7 4 -15 -5 -15 -14 -45 -12 -45 4 0 4 5 21 11 39 l11 32 24
-22 c13 -12 24 -28 24 -35z m61 -45 c7 -14 5 -25 -6 -42 -8 -13 -12 -27 -8
-32 5 -4 -2 -2 -14 4 -36 19 -47 48 -29 76 18 27 40 24 57 -6z m-122 -40 c15
-17 18 -27 10 -46 -6 -18 -6 -22 3 -17 7 5 9 0 6 -14 -9 -34 8 -35 22 -1 10
23 16 27 24 18 8 -8 8 -13 -2 -16 -6 -3 -10 -9 -6 -14 3 -5 1 -9 -5 -9 -6 0
-8 -7 -5 -15 4 -8 2 -15 -3 -15 -12 0 -48 40 -56 62 -4 10 -12 15 -21 12 -8
-3 -17 0 -22 7 -4 7 -2 15 4 17 7 2 12 15 12 28 0 30 13 31 39 3z m33 -51 c-7
-7 -12 -8 -12 -2 0 14 12 26 19 19 2 -3 -1 -11 -7 -17z"/>
<path d="M76 3633 c-4 -9 -4 -18 -1 -21 3 -3 5 0 5 7 0 7 4 10 9 6 5 -3 12 -1
15 4 3 5 0 11 -8 14 -8 3 -17 -1 -20 -10z"/>
<path d="M146 3584 c-8 -22 1 -31 16 -16 9 9 9 15 1 23 -7 7 -12 5 -17 -7z"/>
<path d="M168 3548 c-10 -10 -14 -18 -9 -18 10 0 36 29 30 34 -2 1 -12 -6 -21
-16z"/>
<path d="M44 3522 c3 -18 18 -20 24 -4 1 5 -4 12 -12 15 -9 4 -13 0 -12 -11z"/>
<path d="M3992 3315 c0 -16 2 -22 5 -12 2 9 2 23 0 30 -3 6 -5 -1 -5 -18z"/>
<path d="M4075 3300 c-4 -6 5 -10 20 -10 15 0 24 4 20 10 -3 6 -12 10 -20 10
-8 0 -17 -4 -20 -10z"/>
<path d="M226 3257 c3 -10 9 -15 12 -12 3 3 0 11 -7 18 -10 9 -11 8 -5 -6z"/>
<path d="M3590 3268 c-1 -5 -3 -11 -5 -15 -1 -5 -5 -17 -9 -28 -14 -36 -24
-70 -31 -98 -5 -25 -3 -28 17 -25 21 3 23 8 22 61 -2 83 15 70 19 -15 l3 -73
1 75 c1 64 -10 141 -17 118z"/>
<path d="M3991 3244 c0 -11 3 -14 6 -6 3 7 2 16 -1 19 -3 4 -6 -2 -5 -13z"/>
<path d="M3930 3210 c0 -5 5 -10 11 -10 5 0 7 5 4 10 -3 6 -8 10 -11 10 -2 0
-4 -4 -4 -10z"/>
<path d="M3991 3164 c0 -11 3 -14 6 -6 3 7 2 16 -1 19 -3 4 -6 -2 -5 -13z"/>
<path d="M3620 3118 c0 -7 5 -20 10 -28 8 -12 10 -11 10 7 0 12 -4 25 -10 28
-5 3 -10 0 -10 -7z"/>
<path d="M3956 3115 c-3 -8 -1 -15 4 -15 5 0 12 -10 16 -22 7 -22 7 -22 15 -3
11 28 10 56 -1 30 -7 -16 -9 -17 -9 -3 -1 23 -18 31 -25 13z"/>
<path d="M3707 3053 c-4 -3 -7 -11 -7 -17 0 -6 5 -5 12 2 6 6 9 14 7 17 -3 3
-9 2 -12 -2z"/>
<path d="M3940 3050 c0 -5 5 -10 10 -10 6 0 10 5 10 10 0 6 -4 10 -10 10 -5 0
-10 -4 -10 -10z"/>
<path d="M3550 3018 c0 -4 16 -8 35 -8 46 0 46 15 0 16 -19 0 -35 -3 -35 -8z"/>
<path d="M363 2983 c-6 -15 -7 -37 -3 -48 5 -14 8 -8 13 25 7 53 3 62 -10 23z"/>
<path d="M348 2885 c2 -14 6 -25 8 -25 2 0 4 11 4 25 0 14 -4 25 -9 25 -4 0
-6 -11 -3 -25z"/>
<path d="M110 2838 c-14 -6 -20 -12 -14 -15 7 -2 27 3 45 11 24 10 28 14 14
15 -11 0 -31 -5 -45 -11z"/>
<path d="M336 2837 c3 -10 9 -15 12 -12 3 3 0 11 -7 18 -10 9 -11 8 -5 -6z"/>
<path d="M392 2840 c2 -8 18 -16 34 -17 18 -1 22 0 9 4 -11 3 -26 10 -34 17
-11 9 -13 8 -9 -4z"/>
<path d="M263 2713 c-29 -4 -33 -8 -33 -34 0 -16 5 -29 13 -29 9 0 9 -2 0 -8
-8 -5 -6 -43 9 -147 30 -206 30 -206 67 50 5 39 11 93 13 120 3 55 0 57 -69
48z m42 -93 c-11 -5 -27 -9 -35 -9 -9 0 -8 4 5 9 11 5 27 9 35 9 9 0 8 -4 -5
-9z"/>
<path d="M3 2688 c20 -48 34 -68 47 -68 13 0 13 -1 0 -10 -13 -8 -12 -10 4
-10 15 0 17 5 12 31 -3 17 -6 40 -6 50 0 15 -7 19 -31 19 -21 0 -29 -4 -26
-12z"/>
<path d="M140 2630 c-13 -9 -13 -10 0 -10 8 0 22 5 30 10 13 9 13 10 0 10 -8
0 -22 -5 -30 -10z"/>
<path d="M380 2626 c0 -2 11 -6 25 -8 14 -3 25 -1 25 3 0 5 -11 9 -25 9 -14 0
-25 -2 -25 -4z"/>
<path d="M3925 2620 c3 -5 18 -10 33 -10 21 0 24 2 12 10 -20 13 -53 13 -45 0z"/>
<path d="M1 2590 c0 -33 1 -34 11 -12 8 17 8 26 0 34 -9 9 -12 4 -11 -22z"/>
<path d="M180 2600 c-8 -5 -27 -10 -42 -10 -16 0 -28 -4 -28 -10 0 -17 47 -11
71 10 25 20 24 26 -1 10z"/>
<path d="M365 2582 c15 -16 62 -25 69 -13 4 6 -1 11 -11 11 -10 0 -29 3 -43 6
-17 5 -22 4 -15 -4z"/>
<path d="M4008 2573 c7 -3 16 -2 19 1 4 3 -2 6 -13 5 -11 0 -14 -3 -6 -6z"/>
<path d="M22 2547 c-20 -21 -22 -34 -22 -136 l0 -113 25 16 c14 10 36 16 48
14 12 -2 21 2 20 8 -1 7 -5 43 -8 80 -14 167 -19 177 -63 131z"/>
<path d="M170 2335 c-31 -12 -32 -14 -10 -14 14 0 36 6 50 14 31 18 7 18 -40
0z"/>
<path d="M340 2340 c20 -13 70 -13 70 0 0 6 -19 10 -42 10 -32 0 -39 -3 -28
-10z"/>
<path d="M130 2237 c0 -4 7 -22 16 -38 8 -17 13 -37 11 -44 -4 -10 3 -10 31
-3 53 13 156 37 163 38 4 0 23 -21 43 -47 20 -25 36 -42 36 -37 0 6 -8 19 -17
30 -10 11 -23 29 -29 40 -10 16 -21 19 -70 17 -33 -1 -77 -9 -99 -16 l-40 -14
-22 41 c-12 22 -22 37 -23 33z"/>
<path d="M238 2132 c9 -10 19 -17 21 -16 6 5 -20 34 -30 34 -5 0 -1 -8 9 -18z"/>
<path d="M90 2120 c-8 -5 -12 -11 -10 -14 3 -2 14 2 24 10 22 15 10 19 -14 4z"/>
<path d="M1 2083 c0 -5 14 -28 29 -53 35 -54 59 -106 66 -140 8 -36 -44 -95
-75 -87 -18 4 -20 3 -10 -9 9 -11 9 -14 -1 -14 -8 0 -10 -3 -7 -6 23 -23 107
56 107 100 0 9 6 16 14 16 8 0 28 12 43 26 22 20 24 23 6 15 -12 -6 -25 -16
-28 -21 -14 -23 -37 -7 -57 38 -19 44 -78 142 -85 142 -2 0 -3 -3 -2 -7z"/>
<path d="M112 2065 c0 -16 2 -22 5 -12 2 9 2 23 0 30 -3 6 -5 -1 -5 -18z"/>
<path d="M241 2074 c0 -11 3 -14 6 -6 3 7 2 16 -1 19 -3 4 -6 -2 -5 -13z"/>
<path d="M178 2033 c-48 -3 -58 -7 -58 -23 0 -28 65 -61 127 -65 40 -2 53 1
53 11 0 8 5 14 12 14 6 0 9 2 7 5 -3 2 -21 -1 -41 -7 -29 -8 -46 -7 -92 7 -68
22 -73 39 -10 41 25 1 51 7 57 13 6 6 9 10 7 9 -3 -1 -31 -3 -62 -5z"/>
<path d="M40 1926 c0 -2 7 -7 16 -10 8 -3 12 -2 9 4 -6 10 -25 14 -25 6z"/>
<path d="M637 1411 c-3 -12 -2 -23 3 -26 12 -7 22 27 12 37 -6 6 -12 1 -15
-11z"/>
<path d="M865 1420 c-3 -5 1 -10 9 -10 9 0 16 5 16 10 0 6 -4 10 -9 10 -6 0
-13 -4 -16 -10z"/>
<path d="M920 1405 c0 -8 -6 -12 -14 -9 -8 3 -16 1 -19 -3 -3 -5 6 -9 20 -8
17 0 27 6 29 18 1 9 -2 17 -7 17 -5 0 -9 -7 -9 -15z"/>
<path d="M1010 1410 c0 -5 7 -10 16 -10 8 0 12 5 9 10 -3 6 -10 10 -16 10 -5
0 -9 -4 -9 -10z"/>
<path d="M812 1390 c-32 -30 -27 -35 8 -10 17 12 30 23 30 26 0 10 -18 2 -38
-16z"/>
<path d="M810 1350 c-14 -10 -39 -21 -57 -25 -26 -5 -33 -11 -33 -28 1 -19 2
-20 10 -6 5 9 26 20 45 23 20 4 33 11 30 16 -3 5 10 12 30 16 19 3 35 10 35
15 0 15 -34 9 -60 -11z"/>
<path d="M700 1339 l-25 -21 30 7 c17 3 37 13 45 21 24 23 -20 18 -50 -7z"/>
<path d="M963 1343 c-10 -10 -14 -15 -8 -11 5 3 26 11 45 16 31 9 32 10 9 11
-15 1 -35 -7 -46 -16z"/>
<path d="M640 1307 c-14 -7 -32 -20 -42 -29 -16 -16 -15 -17 12 -16 21 1 27 5
22 16 -3 10 -1 13 7 8 6 -4 11 -13 10 -19 -1 -7 -1 -20 0 -30 1 -15 4 -15 21
-5 22 14 24 53 3 53 -6 0 -15 3 -19 8 -4 4 2 7 14 7 16 0 24 -9 31 -32 l10
-33 -2 38 c0 20 -4 37 -8 37 -4 0 -13 2 -21 4 -7 3 -24 -1 -38 -7z"/>
<path d="M755 1290 c3 -5 8 -10 11 -10 2 0 4 5 4 10 0 6 -5 10 -11 10 -5 0 -7
-4 -4 -10z"/>
<path d="M910 1285 c-11 -13 -10 -14 4 -9 9 3 16 10 16 15 0 13 -6 11 -20 -6z"/>
<path d="M730 1260 c-8 -5 -12 -12 -9 -15 4 -3 12 1 19 10 14 17 11 19 -10 5z"/>
<path d="M540 1250 c0 -5 4 -10 9 -10 6 0 13 5 16 10 3 6 -1 10 -9 10 -9 0
-16 -4 -16 -10z"/>
<path d="M594 1241 c3 -5 0 -9 -7 -8 -6 0 -33 -1 -59 -1 -46 -2 -48 -3 -48
-30 0 -25 -6 -31 -40 -42 -42 -14 -53 -30 -21 -30 11 0 28 -3 38 -7 15 -6 16
-4 5 9 -10 13 -9 16 8 21 11 3 22 2 24 -2 6 -9 -16 -36 -34 -44 -13 -5 -13 -6
1 -6 23 -1 56 31 53 52 -2 12 5 17 23 17 18 0 24 5 21 18 -2 10 -13 17 -25 17
-12 0 -25 4 -30 8 -4 5 12 7 35 6 35 -3 41 -6 36 -21 -3 -10 -1 -18 5 -18 5 0
13 9 16 21 4 11 13 18 20 15 9 -3 11 2 8 15 -3 10 -12 19 -20 19 -8 0 -12 -4
-9 -9z"/>
<path d="M832 1228 c-12 -16 2 -58 20 -58 9 0 9 3 0 12 -16 16 -15 45 1 51 7
4 8 6 1 6 -6 1 -16 -5 -22 -11z"/>
<path d="M783 1209 c-28 -10 -30 -29 -3 -22 20 5 36 21 29 27 -2 2 -14 0 -26
-5z"/>
<path d="M725 1200 c-3 -6 1 -7 9 -4 18 7 21 14 7 14 -6 0 -13 -4 -16 -10z"/>
<path d="M400 1179 c0 -5 -7 -9 -16 -9 -8 0 -12 -5 -8 -11 4 -7 10 -7 16 -1 6
6 16 8 23 6 7 -3 16 -1 19 4 3 5 -3 12 -14 15 -11 3 -20 1 -20 -4z"/>
<path d="M627 1183 c-4 -3 -7 -11 -7 -17 0 -6 5 -5 12 2 6 6 9 14 7 17 -3 3
-9 2 -12 -2z"/>
<path d="M699 1161 c-13 -10 -51 -33 -84 -51 -33 -18 -66 -38 -74 -43 -17 -14
-46 -31 -91 -54 -51 -25 -87 -57 -82 -71 2 -7 -1 -12 -7 -12 -6 0 -11 5 -11
10 0 14 -27 13 -32 -2 -3 -9 -16 -13 -62 -17 -6 -1 -5 -6 2 -13 16 -16 15 -25
-2 -31 -10 -4 -13 -1 -10 7 3 8 0 17 -7 22 -7 4 -15 2 -17 -4 -2 -7 -11 -12
-20 -13 -14 0 -13 -2 3 -9 17 -7 14 -9 -13 -9 -18 -1 -31 -5 -28 -10 3 -5 -5
-12 -19 -15 -14 -4 -25 -11 -25 -17 0 -6 -4 -8 -8 -5 -5 3 -9 -1 -9 -9 0 -8 9
-15 19 -15 27 0 33 4 31 19 -1 9 2 10 10 2 19 -19 39 -13 32 8 -5 17 -2 19 24
16 17 -2 34 2 41 10 7 8 17 12 22 9 5 -3 17 4 25 16 9 13 22 20 33 17 11 -3
22 4 30 18 6 12 27 29 46 38 19 9 34 22 34 27 0 6 5 8 10 5 6 -3 10 -1 10 4 0
6 6 11 14 11 7 0 19 7 26 15 7 9 19 14 27 11 8 -3 12 -2 9 3 -8 12 37 23 61
15 15 -5 16 -4 3 6 -13 10 -11 11 8 7 13 -3 22 0 22 6 0 22 18 40 30 32 9 -6
9 -9 -1 -16 -8 -5 -9 -9 -4 -9 6 0 21 10 35 21 23 18 23 19 3 9 -24 -11 -31
-2 -11 18 8 8 17 8 32 0 21 -11 21 -11 2 11 -15 17 -16 20 -4 16 9 -4 19 -2
23 4 3 6 18 11 33 12 l27 1 -25 8 c-40 13 -56 11 -81 -9z m-84 -80 c-3 -6 -11
-11 -17 -11 -6 0 -6 6 2 15 14 17 26 13 15 -4z m-35 -15 c0 -2 -7 -7 -16 -10
-8 -3 -12 -2 -9 4 6 10 25 14 25 6z"/>
<path d="M344 1148 c-4 -7 -2 -14 4 -16 7 -2 10 -8 6 -13 -3 -5 0 -9 7 -9 8 0
8 -4 -1 -15 -7 -8 -18 -15 -25 -15 -7 0 -12 -11 -12 -25 0 -31 14 -33 19 -2 2
15 9 21 22 19 11 -2 15 1 11 7 -3 6 -2 11 4 11 5 0 11 -7 13 -15 2 -12 7 -11
27 4 29 22 20 41 -20 41 -17 0 -28 3 -26 8 3 4 -1 13 -9 19 -10 10 -15 10 -20
1z m86 -42 c0 -11 -19 -15 -25 -6 -3 5 1 10 9 10 9 0 16 -2 16 -4z"/>
<path d="M540 1140 c6 -11 17 -20 25 -20 11 0 10 5 -5 20 -11 11 -22 20 -25
20 -3 0 -1 -9 5 -20z"/>
<path d="M575 1140 c28 -12 37 -12 30 0 -3 6 -16 10 -28 9 -21 0 -21 -1 -2 -9z"/>
<path d="M315 1130 c-3 -5 -1 -10 4 -10 6 0 11 5 11 10 0 6 -2 10 -4 10 -3 0
-8 -4 -11 -10z"/>
<path d="M516 1111 c-4 -5 -2 -12 3 -15 5 -4 12 -2 15 3 4 5 2 12 -3 15 -5 4
-12 2 -15 -3z"/>
<path d="M3720 1099 c0 -5 5 -7 10 -4 6 3 10 8 10 11 0 2 -4 4 -10 4 -5 0 -10
-5 -10 -11z"/>
<path d="M288 1088 c8 -8 18 -8 34 -1 21 9 20 10 -11 11 -25 0 -31 -2 -23 -10z"/>
<path d="M450 1075 c-7 -9 -11 -18 -8 -20 3 -3 11 1 18 10 7 9 11 18 8 20 -3
3 -11 -1 -18 -10z"/>
<path d="M200 1063 c0 -6 7 -13 15 -17 35 -13 0 -26 -44 -17 -2 1 3 9 10 18
12 14 11 14 -13 -1 -15 -10 -25 -22 -22 -27 3 -5 10 -7 15 -4 5 4 9 4 9 0 0
-3 -11 -10 -25 -15 -14 -5 -25 -15 -25 -21 0 -9 4 -8 14 0 11 9 15 9 19 -1 3
-9 11 -5 26 12 20 22 21 22 12 3 -17 -35 -13 -45 10 -24 18 17 25 18 52 8 l32
-12 -27 -3 c-16 -2 -28 -7 -28 -12 0 -5 14 -5 31 0 36 11 49 20 28 20 -12 0
-11 2 1 10 12 8 11 10 -5 8 -50 -4 -55 0 -44 32 11 31 23 38 34 20 3 -5 1 -10
-4 -10 -6 0 -11 -7 -11 -15 0 -12 9 -15 34 -13 l35 2 -17 29 c-15 25 -21 28
-54 24 -20 -3 -41 0 -47 6 -8 8 -11 8 -11 0z"/>
<path d="M405 1060 c-3 -5 -2 -10 4 -10 5 0 13 5 16 10 3 6 2 10 -4 10 -5 0
-13 -4 -16 -10z"/>
<path d="M350 1041 c0 -10 9 -21 20 -24 11 -3 20 0 20 5 0 6 6 5 15 -2 9 -7
18 -10 22 -6 3 3 0 6 -7 6 -7 0 -10 3 -7 7 4 3 -1 12 -11 19 -14 10 -18 10
-24 -4 -6 -16 -7 -15 -7 1 -1 23 -21 22 -21 -2z"/>
<path d="M83 988 c2 -37 27 -64 39 -45 6 9 10 9 16 1 4 -6 15 -13 24 -17 12
-4 15 -2 11 8 -3 8 -9 12 -14 9 -5 -3 -9 0 -9 5 0 6 -10 11 -23 11 -19 0 -23
5 -23 27 1 14 -4 28 -11 30 -8 3 -12 -6 -10 -29z"/>
<path d="M343 990 c1 -20 8 -25 20 -14 7 8 -3 34 -13 34 -5 0 -8 -9 -7 -20z"/>
<path d="M64 992 c3 -6 -2 -13 -11 -15 -14 -4 -13 -5 5 -6 23 -1 30 13 10 25
-6 4 -8 3 -4 -4z"/>
<path d="M475 960 c-3 -6 1 -7 9 -4 18 7 21 14 7 14 -6 0 -13 -4 -16 -10z"/>
<path d="M61 948 c0 -10 -5 -18 -10 -18 -6 0 -8 -9 -6 -20 4 -21 -19 -28 -30
-10 -3 6 -1 10 5 10 6 0 8 5 5 10 -11 18 -21 10 -20 -18 0 -21 5 -28 20 -27
26 0 47 14 40 26 -8 12 -3 11 30 -1 17 -7 24 -7 20 0 -3 6 -13 10 -21 10 -8 0
-12 5 -9 10 3 6 2 10 -4 10 -5 0 -12 8 -14 18 -4 16 -5 16 -6 0z"/>
<path d="M421 930 c-13 -11 -19 -20 -14 -20 6 0 20 9 33 20 30 26 12 26 -19 0z"/>
<path d="M3760 939 c0 -5 5 -7 10 -4 6 3 10 8 10 11 0 2 -4 4 -10 4 -5 0 -10
-5 -10 -11z"/>
<path d="M190 930 c0 -5 5 -10 10 -10 6 0 10 5 10 10 0 6 -4 10 -10 10 -5 0
-10 -4 -10 -10z"/>
<path d="M145 890 c-3 -5 -2 -10 4 -10 5 0 13 5 16 10 3 6 2 10 -4 10 -5 0
-13 -4 -16 -10z"/>
<path d="M76 882 c-3 -5 1 -9 9 -9 8 0 12 4 9 9 -3 4 -7 8 -9 8 -2 0 -6 -4 -9
-8z"/>
<path d="M4575 830 c3 -5 11 -10 16 -10 6 0 7 5 4 10 -3 6 -11 10 -16 10 -6 0
-7 -4 -4 -10z"/>
<path d="M205 800 c-10 -11 -14 -20 -9 -20 5 0 17 9 27 20 9 11 13 20 8 20 -4
0 -16 -9 -26 -20z"/>
<path d="M40 791 c0 -4 11 -6 25 -3 14 2 25 6 25 8 0 2 -11 4 -25 4 -14 0 -25
-4 -25 -9z"/>
<path d="M155 791 c-3 -6 -11 -9 -16 -6 -12 8 -51 -4 -44 -14 2 -5 12 -8 22
-7 24 2 59 23 51 31 -3 3 -9 1 -13 -4z"/>
<path d="M0 744 c0 -12 5 -26 10 -29 6 -3 10 1 10 9 0 9 11 18 25 22 32 8 24
18 -16 20 -24 1 -29 -2 -29 -22z"/>
<path d="M4458 623 c7 -3 16 -2 19 1 4 3 -2 6 -13 5 -11 0 -14 -3 -6 -6z"/>
<path d="M4288 423 c7 -3 16 -2 19 1 4 3 -2 6 -13 5 -11 0 -14 -3 -6 -6z"/>
<path d="M4376 137 c3 -10 9 -15 12 -12 3 3 0 11 -7 18 -10 9 -11 8 -5 -6z"/>
<path d="M4540 140 c0 -5 4 -10 9 -10 6 0 13 5 16 10 3 6 -1 10 -9 10 -9 0
-16 -4 -16 -10z"/>
<path d="M4530 100 c-8 -5 -12 -12 -9 -15 4 -3 12 1 19 10 14 17 11 19 -10 5z"/>
<path d="M4386 54 c-5 -14 -4 -15 9 -4 17 14 19 20 6 20 -5 0 -12 -7 -15 -16z"/>
<path d="M4456 51 c-3 -5 1 -11 9 -14 9 -4 12 -1 8 9 -6 16 -10 17 -17 5z"/>
<path d="M4545 40 c-3 -5 -1 -10 4 -10 6 0 11 5 11 10 0 6 -2 10 -4 10 -3 0
-8 -4 -11 -10z"/>
<path d="M4235 10 c-3 -5 -1 -10 4 -10 6 0 11 5 11 10 0 6 -2 10 -4 10 -3 0
-8 -4 -11 -10z"/>
</g>
</svg>
